<?xml version="1.0" encoding="utf-8"?>
<!-- Generator: Adobe Illustrator 16.0.0, SVG Export Plug-In . SVG Version: 6.00 Build 0)  -->
<!DOCTYPE svg PUBLIC "-//W3C//DTD SVG 1.1//EN" "http://www.w3.org/Graphics/SVG/1.1/DTD/svg11.dtd">
<svg version="1.1" xmlns="http://www.w3.org/2000/svg" xmlns:xlink="http://www.w3.org/1999/xlink" x="0px" y="0px"
	 width="795.079px" height="1545.154px" viewBox="0 0 795.079 1545.154" enable-background="new 0 0 795.079 1545.154"
	 xml:space="preserve">
<g id="interface_bouton">
	<rect x="-855.827" y="284.012" opacity="0.7" fill="#3C3C3B" width="639.999" height="960"/>
	<rect x="-855.827" y="502.301" opacity="0.4" width="640" height="588"/>
	<circle opacity="0.2" fill="none" stroke="#000000" stroke-miterlimit="10" cx="-535.828" cy="796.592" r="223.579"/>
	<circle fill="#90D0DA" cx="-532.583" cy="574.252" r="33.14"/>
	<g>
		<path fill="none" stroke="#000000" stroke-miterlimit="10" d="M-532.889,623.962c-27.454,0-49.71-22.255-49.71-49.71"/>
		<path fill="none" stroke="#000000" stroke-miterlimit="10" d="M-582.599,574.252c0-27.455,22.256-49.709,49.71-49.709"/>
		<path fill="none" stroke="#000000" stroke-miterlimit="10" d="M-532.889,524.542c27.454,0,49.708,22.255,49.708,49.709"/>
		<circle cx="-483.181" cy="574.252" r="4.295"/>
	</g>
	<circle fill="#FFE463" cx="-336.209" cy="907.425" r="32.864"/>
	<g>
		<path fill="none" stroke="#000000" stroke-miterlimit="10" d="M-530.589,1069.467c-27.225,0-49.296-22.07-49.296-49.295"/>
		<path fill="none" stroke="#000000" stroke-miterlimit="10" d="M-579.885,1020.172c0-27.225,22.071-49.297,49.296-49.297"/>
		<path fill="none" stroke="#000000" stroke-miterlimit="10" d="M-530.589,970.875c27.225,0,49.294,22.072,49.294,49.297"/>
		<path d="M-477.037,1020.172c0,2.35-1.908,4.262-4.258,4.262c-2.354,0-4.26-1.912-4.26-4.262c0-2.354,1.906-4.262,4.26-4.262
			C-478.944,1015.91-477.037,1017.818-477.037,1020.172z"/>
	</g>
	<circle fill="#9568AD" cx="-726.337" cy="682.479" r="32.906"/>
	<path fill="none" stroke="#000000" stroke-miterlimit="10" d="M-336.182,731.972c-27.263,0-49.362-22.099-49.362-49.359"/>
	<path fill="none" stroke="#000000" stroke-miterlimit="10" d="M-385.544,682.613c0-27.262,22.099-49.36,49.362-49.36"/>
	<path fill="none" stroke="#000000" stroke-miterlimit="10" d="M-336.664,636.068"/>
	<path d="M-331.944,633.254c0,2.354-1.91,4.265-4.263,4.265c-2.357,0-4.268-1.911-4.268-4.265c0-2.356,1.911-4.267,4.268-4.267
		C-333.854,628.987-331.944,630.897-331.944,633.254z"/>
	<circle fill="#B4D300" cx="-336.182" cy="682.48" r="33.062"/>
	<path fill="none" stroke="#000000" stroke-miterlimit="10" d="M-726.066,960.162c-27.393,0-49.598-22.203-49.598-49.594"/>
	<path fill="none" stroke="#000000" stroke-miterlimit="10" d="M-775.664,910.568c0-27.393,22.205-49.595,49.598-49.595"/>
	<path fill="none" stroke="#000000" stroke-miterlimit="10" d="M-726.066,860.974"/>
	<path d="M-721.808,860.974c0,2.365-1.919,4.286-4.282,4.286c-2.368,0-4.289-1.921-4.289-4.286c0-2.368,1.921-4.287,4.289-4.287
		C-723.727,856.687-721.808,858.605-721.808,860.974z"/>
	<circle fill="#F5A357" cx="-530.461" cy="1020.172" r="32.865"/>
	<g>
		<path fill="none" stroke="#000000" stroke-miterlimit="10" d="M-337.491,960.166"/>
		<path fill="none" stroke="#000000" stroke-miterlimit="10" d="M-337.491,960.166c-27.228,0-49.298-22.068-49.298-49.296"/>
		<circle cx="-386.788" cy="910.87" r="4.26"/>
	</g>
	<circle fill="#EC694A" cx="-727.337" cy="907.424" r="32.659"/>
	<g>
		<path fill="#90D0DA" d="M-728.518,402.215c13.088,0,23.7,10.61,23.7,23.698c0,13.089-10.611,23.7-23.7,23.7
			s-23.698-10.611-23.698-23.7C-752.216,412.825-741.606,402.215-728.518,402.215 M-728.518,399.215
			c-14.721,0-26.698,11.977-26.698,26.698c0,14.723,11.977,26.7,26.698,26.7c14.722,0,26.7-11.978,26.7-26.7
			C-701.818,411.191-713.795,399.215-728.518,399.215L-728.518,399.215z"/>
	</g>
	<g>
		<path fill="#FFE463" d="M-572.439,402.949c12.684,0,22.967,10.282,22.967,22.966c0,12.683-10.283,22.966-22.967,22.966
			s-22.966-10.283-22.966-22.966C-595.405,413.231-585.124,402.949-572.439,402.949 M-572.439,399.949
			c-14.317,0-25.966,11.648-25.966,25.966s11.648,25.966,25.966,25.966c14.318,0,25.967-11.648,25.967-25.966
			S-558.121,399.949-572.439,399.949L-572.439,399.949z"/>
	</g>
	<g>
		<path fill="#9568AD" d="M-337.096,402.377c12.999,0,23.535,10.537,23.535,23.537c0,12.999-10.536,23.537-23.535,23.537
			c-13,0-23.539-10.538-23.539-23.537C-360.635,412.915-350.097,402.377-337.096,402.377 M-337.096,399.377
			c-14.633,0-26.539,11.904-26.539,26.537s11.905,26.537,26.539,26.537c14.632,0,26.535-11.904,26.535-26.537
			S-322.464,399.377-337.096,399.377L-337.096,399.377z"/>
	</g>
	<g>
		<path fill="#B4D300" d="M-650.601,402.94c12.688,0,22.973,10.286,22.973,22.976c0,12.688-10.284,22.974-22.973,22.974
			c-12.69,0-22.977-10.286-22.977-22.974C-673.577,413.226-663.291,402.94-650.601,402.94 M-650.601,399.94
			c-14.324,0-25.977,11.653-25.977,25.976c0,14.322,11.653,25.974,25.977,25.974c14.321,0,25.973-11.652,25.973-25.974
			C-624.628,411.593-636.279,399.94-650.601,399.94L-650.601,399.94z"/>
	</g>
	<g>
		<path fill="#F5A357" d="M-494.089,402.622c12.864,0,23.292,10.429,23.292,23.293s-10.428,23.292-23.292,23.292
			c-12.863,0-23.291-10.429-23.291-23.292S-506.952,402.622-494.089,402.622 M-494.089,399.622
			c-14.497,0-26.291,11.795-26.291,26.293c0,14.498,11.794,26.292,26.291,26.292c14.498,0,26.292-11.795,26.292-26.292
			C-467.797,411.417-479.591,399.622-494.089,399.622L-494.089,399.622z"/>
	</g>
	<g>
		<path fill="#EC694A" d="M-415.918,403.135c12.582,0,22.78,10.199,22.78,22.779c0,12.582-10.198,22.78-22.78,22.78
			c-12.58,0-22.778-10.199-22.778-22.78C-438.697,413.334-428.498,403.135-415.918,403.135 M-415.918,400.135
			c-14.214,0-25.778,11.564-25.778,25.779c0,14.215,11.564,25.78,25.778,25.78c14.215,0,25.78-11.565,25.78-25.78
			C-390.138,411.7-401.703,400.135-415.918,400.135L-415.918,400.135z"/>
	</g>
	<g>
		<path fill="none" stroke="#000000" stroke-miterlimit="10" d="M-727.337,733.468"/>
		<path fill="none" stroke="#000000" stroke-miterlimit="10" d="M-727.337,733.468c-27.056,0-48.988-21.931-48.988-48.988"/>
		<path d="M-780.557,684.479c0-2.336,1.896-4.233,4.231-4.233c2.339,0,4.234,1.897,4.234,4.233c0,2.338-1.896,4.235-4.234,4.235
			C-778.661,688.714-780.557,686.818-780.557,684.479z"/>
	</g>
	<path fill="#FFFFFF" d="M-284.797,58.701h-18.397v-2.903c0-4.144-3.36-7.52-7.504-7.52h-115.41c-4.144,0-7.535,3.375-7.535,7.52
		v2.903h-340.85c-62.696,0-113.706,51.01-113.706,113.706v13.529h-4.828c-4.143,0-7.51,3.376-7.51,7.527v57.795
		c0,4.135,3.367,7.51,7.51,7.51h4.828v100.046h-4.828c-4.143,0-7.51,3.369-7.51,7.51v38.583c0,4.158,3.367,7.534,7.51,7.534h4.828
		v61.611h-4.828c-4.143,0-7.51,3.378-7.51,7.536v38.574c0,4.142,3.367,7.519,7.51,7.519h4.828v867.495
		c0,62.695,51.01,113.697,113.706,113.697h489.696c62.68,0,113.682-51.002,113.682-113.697V172.406
		C-171.116,109.71-222.118,58.701-284.797,58.701z M-214.322,1244.748H-854.56V284.391h640.238V1244.748z"/>
	<path fill="#000100" d="M-284.797,58.701h-18.397v-2.903c0-4.144-3.36-7.52-7.504-7.52h-115.41c-4.144,0-7.535,3.375-7.535,7.52
		v2.903h-340.85c-62.697,0-113.706,51.01-113.706,113.706v13.529h-4.828c-4.142,0-7.51,3.376-7.51,7.527v57.795
		c0,4.135,3.368,7.51,7.51,7.51h4.828v100.046h-4.828c-4.142,0-7.51,3.369-7.51,7.51v38.583c0,4.158,3.368,7.534,7.51,7.534h4.828
		v61.611h-4.828c-4.142,0-7.51,3.378-7.51,7.536v38.574c0,4.142,3.368,7.519,7.51,7.519h4.828v867.495
		c0,62.695,51.009,113.697,113.706,113.697h489.696c62.68,0,113.682-51.002,113.682-113.697V172.406
		C-171.116,109.71-222.118,58.701-284.797,58.701z M-586.65,170.702h104.354c7.845,0,14.271,5.562,14.271,12.411
		c0,6.843-6.426,12.404-14.271,12.404H-586.65c-7.878,0-14.271-5.562-14.271-12.404C-600.92,176.263-594.528,170.702-586.65,170.702
		z M-640.914,171.102c6.623,0,12.005,5.382,12.005,12.011c0,6.63-5.382,12.005-12.005,12.005c-6.622,0-12.004-5.375-12.004-12.005
		C-652.917,176.484-647.535,171.102-640.914,171.102z M-534.44,1443.244c-38.9,0-70.429-31.545-70.429-70.428
		c0-38.9,31.529-70.426,70.429-70.426c38.883,0,70.426,31.525,70.426,70.426C-464.014,1411.699-495.557,1443.244-534.44,1443.244z
		 M-214.322,1244.748H-854.56V284.391h640.238V1244.748z"/>
	<rect x="-855.827" y="283.721" fill="none" stroke="#3C3C3B" stroke-width="5" stroke-miterlimit="10" width="640" height="960"/>
	<g opacity="0.5">
		<circle fill="#FFFFFF" cx="-728.517" cy="425.914" r="23.699"/>
	</g>
	<g opacity="0.5">
		<circle fill="#FFFFFF" cx="-494.151" cy="425.916" r="22.966"/>
	</g>
	<g opacity="0.5">
		<circle fill="#FFFFFF" cx="-337.098" cy="425.916" r="23.537"/>
	</g>
	<g opacity="0.5">
		<circle fill="#FFFFFF" cx="-572.501" cy="425.917" r="22.975"/>
	</g>
	<g opacity="0.5">
		<circle fill="#FFFFFF" cx="-415.98" cy="425.916" r="23.291"/>
	</g>
	<g opacity="0.5">
		<circle fill="#FFFFFF" cx="-650.665" cy="425.915" r="22.779"/>
	</g>
	<polyline opacity="0.2" fill="#9568AD" points="-535.33,685.595 -628.916,739.979 -629.229,851.314 -532.028,795.921 
		-535.33,685.595 	"/>
	<polygon opacity="0.2" fill="#B4D300" points="-535.33,685.595 -438.437,741.537 -438.755,852.873 -532.028,795.921 	"/>
	<polygon opacity="0.2" fill="#F5A357" points="-438.755,852.873 -532.338,907.59 -629.229,851.314 -532.028,795.921 	"/>
	<g opacity="0.4">
		<g>
			<polygon fill="#EC694A" points="-532.185,796.085 -532.495,907.425 -629.386,851.479 -629.073,740.143 			"/>
		</g>
	</g>
	<g opacity="0.4">
		<g>
			<polygon fill="#FFE463" points="-532.185,796.085 -438.593,741.701 -438.912,853.037 -532.495,907.425 			"/>
		</g>
	</g>
	<g opacity="0.4">
		<g>
			<polygon fill="#83BBC3" points="-629.073,740.143 -535.487,685.759 -438.593,741.701 -532.185,796.085 			"/>
		</g>
	</g>
</g>
<g id="Calque_3">
	<rect x="78.54" y="282.36" opacity="0.7" fill="#3C3C3B" width="639.999" height="960"/>
	<path fill="#FFFFFF" d="M648.569,57.048h-18.397v-2.903c0-4.144-3.36-7.52-7.504-7.52h-115.41c-4.144,0-7.535,3.375-7.535,7.52
		v2.903h-340.85c-62.696,0-113.706,51.01-113.706,113.706v13.529h-4.828c-4.143,0-7.51,3.376-7.51,7.527v57.795
		c0,4.135,3.367,7.51,7.51,7.51h4.828v100.046h-4.828c-4.143,0-7.51,3.369-7.51,7.51v38.583c0,4.158,3.367,7.534,7.51,7.534h4.828
		v61.611h-4.828c-4.143,0-7.51,3.378-7.51,7.536v38.574c0,4.142,3.367,7.519,7.51,7.519h4.828v867.495
		c0,62.695,51.01,113.697,113.706,113.697h489.696c62.68,0,113.682-51.002,113.682-113.697V170.754
		C762.25,108.058,711.249,57.048,648.569,57.048z M719.044,1243.096H78.806V282.738h640.238V1243.096z"/>
	<path fill="#000100" d="M648.569,57.048h-18.397v-2.903c0-4.144-3.36-7.52-7.504-7.52h-115.41c-4.144,0-7.535,3.375-7.535,7.52
		v2.903h-340.85c-62.696,0-113.706,51.01-113.706,113.706v13.529h-4.828c-4.143,0-7.51,3.376-7.51,7.527v57.795
		c0,4.135,3.367,7.51,7.51,7.51h4.828v100.046h-4.828c-4.143,0-7.51,3.369-7.51,7.51v38.583c0,4.158,3.367,7.534,7.51,7.534h4.828
		v61.611h-4.828c-4.143,0-7.51,3.378-7.51,7.536v38.574c0,4.142,3.367,7.519,7.51,7.519h4.828v867.495
		c0,62.695,51.01,113.697,113.706,113.697h489.696c62.68,0,113.682-51.002,113.682-113.697V170.754
		C762.25,108.058,711.249,57.048,648.569,57.048z M346.716,169.049H451.07c7.845,0,14.271,5.562,14.271,12.411
		c0,6.843-6.426,12.404-14.271,12.404H346.716c-7.878,0-14.271-5.562-14.271-12.404
		C332.446,174.611,338.838,169.049,346.716,169.049z M292.453,169.45c6.622,0,12.005,5.382,12.005,12.011
		c0,6.63-5.383,12.005-12.005,12.005s-12.004-5.375-12.004-12.005C280.449,174.832,285.831,169.45,292.453,169.45z
		 M398.926,1441.592c-38.9,0-70.429-31.545-70.429-70.428c0-38.9,31.528-70.426,70.429-70.426c38.883,0,70.426,31.525,70.426,70.426
		C469.352,1410.047,437.809,1441.592,398.926,1441.592z M719.044,1243.096H78.806V282.738h640.238V1243.096z"/>
	<rect x="78.539" y="284.012" fill="none" stroke="#3C3C3B" stroke-width="5" stroke-miterlimit="10" width="640" height="960"/>
	<rect x="78.914" y="341.256" opacity="0.4" width="640" height="181"/>
	<path fill="none" stroke="#9568AD" stroke-width="4" stroke-miterlimit="10" d="M222.158,499.806
		c-37.805,0-68.451-30.645-68.451-68.45"/>
	<path fill="none" stroke="#9568AD" stroke-width="4" stroke-miterlimit="10" d="M153.707,431.355
		c0-37.805,30.646-68.45,68.451-68.45"/>
	<path fill="none" stroke="#9568AD" stroke-width="4" stroke-miterlimit="10" d="M222.158,362.905
		c37.805,0,68.45,30.645,68.45,68.45"/>
	<path fill="none" stroke="#B4D300" stroke-width="3" stroke-miterlimit="10" d="M410.654,499.806
		c-37.808,0-68.453-30.645-68.453-68.45"/>
	<path fill="none" stroke="#B4D300" stroke-width="3" stroke-miterlimit="10" d="M342.201,431.355
		c0-37.805,30.645-68.45,68.453-68.45"/>
	<path fill="none" stroke="#000000" stroke-miterlimit="10" d="M410.654,362.905"/>
	<path fill="none" stroke="#F7A900" stroke-width="3" stroke-miterlimit="10" d="M601.599,502.763
		c-37.805,0-68.451-30.645-68.451-68.45"/>
	<rect x="107.91" y="642.253" opacity="0.6" fill="#FFFFFF" width="568" height="252.504"/>
	<rect x="159.576" y="688.609" fill="none" width="465" height="159.969"/>
	<text transform="matrix(1 0 0 1 159.5762 711.541)"><tspan x="0" y="0" font-family="'Antipasto-ExtraLight'" font-size="36">Quam</tspan><tspan x="87.047" y="0" font-family="'Antipasto-ExtraLight'" font-size="36" letter-spacing="23"> </tspan><tspan x="115.354" y="0" font-family="'Antipasto-ExtraLight'" font-size="36">ob</tspan><tspan x="155.709" y="0" font-family="'Antipasto-ExtraLight'" font-size="36" letter-spacing="23"> </tspan><tspan x="184.015" y="0" font-family="'Antipasto-ExtraLight'" font-size="36">rem</tspan><tspan x="240.102" y="0" font-family="'Antipasto-ExtraLight'" font-size="36" letter-spacing="23"> </tspan><tspan x="268.408" y="0" font-family="'Antipasto-ExtraLight'" font-size="36">circumspecta </tspan><tspan x="0" y="43.2" font-family="'Antipasto-ExtraLight'" font-size="36">cautela</tspan><tspan x="110.194" y="43.2" font-family="'Antipasto-ExtraLight'" font-size="36" letter-spacing="62"> </tspan><tspan x="177.332" y="43.2" font-family="'Antipasto-ExtraLight'" font-size="36">observatum</tspan><tspan x="351.856" y="43.2" font-family="'Antipasto-ExtraLight'" font-size="36" letter-spacing="62"> </tspan><tspan x="418.994" y="43.2" font-family="'Antipasto-ExtraLight'" font-size="36">est </tspan><tspan x="0" y="86.4" font-family="'Antipasto-ExtraLight'" font-size="36">deinceps</tspan><tspan x="134.529" y="86.4" font-family="'Antipasto-ExtraLight'" font-size="36" letter-spacing="7"> </tspan><tspan x="146.516" y="86.4" font-family="'Antipasto-ExtraLight'" font-size="36">et</tspan><tspan x="177.224" y="86.4" font-family="'Antipasto-ExtraLight'" font-size="36" letter-spacing="7"> </tspan><tspan x="189.21" y="86.4" font-family="'Antipasto-ExtraLight'" font-size="36">cum</tspan><tspan x="248.069" y="86.4" font-family="'Antipasto-ExtraLight'" font-size="36" letter-spacing="7"> </tspan><tspan x="260.056" y="86.4" font-family="'Antipasto-ExtraLight'" font-size="36">edita</tspan><tspan x="335.799" y="86.4" font-family="'Antipasto-ExtraLight'" font-size="36" letter-spacing="7"> </tspan><tspan x="347.786" y="86.4" font-family="'Antipasto-ExtraLight'" font-size="36">montium </tspan><tspan x="0" y="129.6" font-family="'Antipasto-ExtraLight'" font-size="36">petere</tspan><tspan x="102.166" y="129.6" font-family="'Antipasto-ExtraLight'" font-size="36" letter-spacing="13"> </tspan><tspan x="120.507" y="129.6" font-family="'Antipasto-ExtraLight'" font-size="36">coeperint</tspan><tspan x="261.156" y="129.6" font-family="'Antipasto-ExtraLight'" font-size="36" letter-spacing="13"> </tspan><tspan x="279.497" y="129.6" font-family="'Antipasto-ExtraLight'" font-size="36">grassatores, </tspan></text>
	<rect x="117.357" y="967.066" opacity="0.6" fill="#FFFFFF" width="568" height="252.504"/>
	<rect x="169.023" y="1013.422" fill="none" width="465" height="159.969"/>
	<text transform="matrix(1 0 0 1 169.0234 1036.3535)"><tspan x="0" y="0" font-family="'Antipasto-ExtraLight'" font-size="36" letter-spacing="19"> </tspan><tspan x="24.119" y="0" font-family="'Antipasto-ExtraLight'" font-size="36">milites</tspan><tspan x="108.897" y="0" font-family="'Antipasto-ExtraLight'" font-size="36" letter-spacing="19"> </tspan><tspan x="133.016" y="0" font-family="'Antipasto-ExtraLight'" font-size="36">cedunt.</tspan><tspan x="239.503" y="0" font-family="'Antipasto-ExtraLight'" font-size="36" letter-spacing="19"> </tspan><tspan x="263.622" y="0" font-family="'Antipasto-ExtraLight'" font-size="36">ubi</tspan><tspan x="304.121" y="0" font-family="'Antipasto-ExtraLight'" font-size="36" letter-spacing="19"> </tspan><tspan x="328.24" y="0" font-family="'Antipasto-ExtraLight'" font-size="36">autem</tspan><tspan x="420.326" y="0" font-family="'Antipasto-ExtraLight'" font-size="36" letter-spacing="19"> </tspan><tspan x="444.445" y="0" font-family="'Antipasto-ExtraLight'" font-size="36">in </tspan><tspan x="0" y="43.2" font-family="'Antipasto-ExtraLight'" font-size="36">planitie</tspan><tspan x="101.086" y="43.2" font-family="'Antipasto-ExtraLight'" font-size="36" letter-spacing="12"> </tspan><tspan x="118.077" y="43.2" font-family="'Antipasto-ExtraLight'" font-size="36">potuerint</tspan><tspan x="246.883" y="43.2" font-family="'Antipasto-ExtraLight'" font-size="36" letter-spacing="12"> </tspan><tspan x="263.874" y="43.2" font-family="'Antipasto-ExtraLight'" font-size="36">reperiri,</tspan><tspan x="371.619" y="43.2" font-family="'Antipasto-ExtraLight'" font-size="36" letter-spacing="12"> </tspan><tspan x="388.61" y="43.2" font-family="'Antipasto-ExtraLight'" font-size="36">quod </tspan><tspan x="0" y="86.4" font-family="'Antipasto-ExtraLight'" font-size="36">contingit</tspan><tspan x="120.635" y="86.4" font-family="'Antipasto-ExtraLight'" font-size="36" letter-spacing="1"> </tspan><tspan x="126.826" y="86.4" font-family="'Antipasto-ExtraLight'" font-size="36">adsidue,</tspan><tspan x="249.116" y="86.4" font-family="'Antipasto-ExtraLight'" font-size="36" letter-spacing="1"> </tspan><tspan x="255.307" y="86.4" font-family="'Antipasto-ExtraLight'" font-size="36">nec</tspan><tspan x="309.559" y="86.4" font-family="'Antipasto-ExtraLight'" font-size="36" letter-spacing="1"> </tspan><tspan x="315.749" y="86.4" font-family="'Antipasto-ExtraLight'" font-size="36">exsertare </tspan><tspan x="0" y="129.6" font-family="'Antipasto-ExtraLight'" font-size="36">lacertos</tspan><tspan x="120.201" y="129.6" font-family="'Antipasto-ExtraLight'" font-size="36" letter-spacing="13"> </tspan><tspan x="138.392" y="129.6" font-family="'Antipasto-ExtraLight'" font-size="36">nec</tspan><tspan x="192.643" y="129.6" font-family="'Antipasto-ExtraLight'" font-size="36" letter-spacing="13"> </tspan><tspan x="210.834" y="129.6" font-family="'Antipasto-ExtraLight'" font-size="36">crispare</tspan><tspan x="331" y="129.6" font-family="'Antipasto-ExtraLight'" font-size="36" letter-spacing="13"> </tspan><tspan x="349.191" y="129.6" font-family="'Antipasto-ExtraLight'" font-size="36">permissi </tspan></text>
	<g>
		<path fill="#FFFFFF" d="M172.302,437.439c0-0.475-0.092-0.893-0.276-1.253s-0.441-0.675-0.771-0.943
			c-0.331-0.268-0.717-0.506-1.162-0.713c-0.445-0.207-0.92-0.402-1.426-0.586c-0.476-0.138-0.978-0.307-1.507-0.506
			c-0.529-0.199-1.016-0.437-1.461-0.713c-0.445-0.276-0.812-0.594-1.104-0.955c-0.292-0.36-0.438-0.771-0.438-1.23
			c0-0.537,0.134-1.024,0.402-1.461c0.269-0.438,0.61-0.809,1.024-1.116c0.414-0.307,0.878-0.544,1.392-0.713
			c0.514-0.168,1.016-0.253,1.507-0.253c0.322,0,0.659,0.034,1.012,0.104c0.353,0.069,0.702,0.176,1.047,0.322
			c0.345,0.146,0.683,0.337,1.012,0.575c0.33,0.237,0.633,0.525,0.909,0.862c0.138,0.184,0.138,0.345,0,0.483
			c-0.138,0.138-0.276,0.192-0.414,0.161c-0.123-0.03-0.207-0.092-0.253-0.184c-0.246-0.353-0.514-0.632-0.805-0.839
			c-0.292-0.208-0.586-0.368-0.886-0.483c-0.299-0.115-0.586-0.192-0.862-0.23c-0.276-0.038-0.529-0.058-0.759-0.058
			c-0.354,0-0.736,0.05-1.15,0.149c-0.414,0.101-0.798,0.265-1.15,0.495c-0.353,0.23-0.648,0.526-0.886,0.886
			c-0.238,0.361-0.356,0.794-0.356,1.3c0,0.337,0.119,0.636,0.356,0.897s0.537,0.495,0.897,0.702
			c0.36,0.207,0.751,0.388,1.173,0.541c0.422,0.153,0.809,0.292,1.162,0.414c0.705,0.276,1.338,0.548,1.898,0.817
			c0.559,0.268,1.031,0.567,1.415,0.897c0.383,0.33,0.675,0.706,0.874,1.127c0.199,0.421,0.299,0.924,0.299,1.506
			c0,0.598-0.127,1.154-0.38,1.668c-0.253,0.514-0.594,0.959-1.023,1.334c-0.43,0.376-0.917,0.675-1.461,0.897
			c-0.544,0.223-1.116,0.333-1.714,0.333c-0.43,0-0.875-0.054-1.334-0.161c-0.46-0.107-0.897-0.26-1.312-0.46
			c-0.414-0.199-0.79-0.437-1.127-0.713c-0.338-0.276-0.591-0.59-0.759-0.943c-0.077-0.168-0.077-0.311,0-0.426
			c0.076-0.115,0.184-0.172,0.322-0.172c0.168,0,0.291,0.062,0.368,0.184c0.153,0.307,0.387,0.583,0.701,0.828
			c0.314,0.246,0.655,0.453,1.024,0.621c0.368,0.169,0.744,0.299,1.127,0.391c0.383,0.092,0.721,0.138,1.012,0.138
			c0.491,0,0.966-0.088,1.426-0.264c0.46-0.176,0.871-0.422,1.231-0.736c0.36-0.314,0.647-0.686,0.862-1.116
			C172.195,438.413,172.302,437.945,172.302,437.439z"/>
		<path fill="#FFFFFF" d="M175.062,441.672c-0.246,0-0.368-0.123-0.368-0.368v-13.917c0-0.245,0.123-0.368,0.368-0.368h7.384
			c0.245,0,0.368,0.123,0.368,0.368c0,0.246-0.123,0.368-0.368,0.368h-7.016v6.119h4.532c0.245,0,0.368,0.123,0.368,0.368
			s-0.123,0.368-0.368,0.368h-4.532v6.326h7.016c0.245,0,0.368,0.123,0.368,0.368c0,0.246-0.123,0.368-0.368,0.368H175.062z"/>
		<path fill="#FFFFFF" d="M184.793,427.386c0-0.153,0.084-0.268,0.253-0.345c0.092-0.03,0.18-0.023,0.265,0.023
			c0.084,0.046,0.149,0.107,0.195,0.184l9.018,12.906v-12.768c0-0.245,0.123-0.368,0.368-0.368s0.368,0.123,0.368,0.368v13.917
			c0,0.246-0.123,0.368-0.368,0.368c-0.123,0-0.23-0.054-0.322-0.161l-9.041-12.951v12.744c0,0.246-0.123,0.368-0.368,0.368
			c-0.246,0-0.368-0.123-0.368-0.368V427.386z"/>
		<path fill="#FFFFFF" d="M205.75,426.949c0.245,0,0.368,0.123,0.368,0.368s-0.123,0.368-0.368,0.368h-3.842v13.619
			c0,0.246-0.123,0.368-0.368,0.368c-0.246,0-0.368-0.123-0.368-0.368v-13.619h-3.842c-0.245,0-0.368-0.122-0.368-0.368
			s0.123-0.368,0.368-0.368H205.75z"/>
		<path fill="#FFFFFF" d="M207.867,427.386c0-0.245,0.123-0.368,0.368-0.368c0.245,0,0.368,0.123,0.368,0.368v13.917
			c0,0.246-0.123,0.368-0.368,0.368c-0.246,0-0.368-0.123-0.368-0.368V427.386z"/>
		<path fill="#FFFFFF" d="M212.743,427.34c0.015-0.138,0.107-0.237,0.276-0.299c0.199-0.046,0.345,0.023,0.438,0.207l5.268,13.043
			l5.269-13.043c0.107-0.184,0.245-0.261,0.414-0.23c0.168,0.031,0.268,0.138,0.299,0.322l1.955,13.918
			c0.031,0.246-0.077,0.384-0.322,0.414c-0.23,0.031-0.368-0.076-0.414-0.322l-1.749-12.606l-5.107,12.675
			c-0.061,0.169-0.158,0.253-0.288,0.253c-0.13,0-0.227-0.023-0.287-0.069c-0.046-0.031-0.092-0.092-0.139-0.184l-5.084-12.675
			l-1.748,12.606c-0.046,0.246-0.184,0.353-0.414,0.322c-0.246-0.03-0.353-0.168-0.322-0.414L212.743,427.34z"/>
		<path fill="#FFFFFF" d="M228.916,441.672c-0.246,0-0.368-0.123-0.368-0.368v-13.917c0-0.245,0.123-0.368,0.368-0.368h7.384
			c0.245,0,0.368,0.123,0.368,0.368c0,0.246-0.123,0.368-0.368,0.368h-7.016v6.119h4.532c0.245,0,0.368,0.123,0.368,0.368
			s-0.123,0.368-0.368,0.368h-4.532v6.326h7.016c0.245,0,0.368,0.123,0.368,0.368c0,0.246-0.123,0.368-0.368,0.368H228.916z"/>
		<path fill="#FFFFFF" d="M238.646,427.386c0-0.153,0.084-0.268,0.253-0.345c0.092-0.03,0.18-0.023,0.264,0.023
			c0.084,0.046,0.149,0.107,0.196,0.184l9.018,12.906v-12.768c0-0.245,0.123-0.368,0.368-0.368c0.245,0,0.368,0.123,0.368,0.368
			v13.917c0,0.246-0.123,0.368-0.368,0.368c-0.123,0-0.23-0.054-0.322-0.161l-9.041-12.951v12.744c0,0.246-0.123,0.368-0.368,0.368
			s-0.368-0.123-0.368-0.368V427.386z"/>
		<path fill="#FFFFFF" d="M259.603,426.949c0.246,0,0.368,0.123,0.368,0.368s-0.123,0.368-0.368,0.368h-3.842v13.619
			c0,0.246-0.123,0.368-0.368,0.368c-0.246,0-0.368-0.123-0.368-0.368v-13.619h-3.842c-0.246,0-0.368-0.122-0.368-0.368
			s0.123-0.368,0.368-0.368H259.603z"/>
		<path fill="#FFFFFF" d="M271.312,441.143c0.046,0.092,0.049,0.184,0.011,0.276c-0.038,0.092-0.104,0.161-0.195,0.207
			c-0.107,0.046-0.207,0.05-0.299,0.011c-0.092-0.038-0.154-0.103-0.185-0.195l-2.047-4.693h-7.338l-2.024,4.693
			c-0.031,0.092-0.092,0.157-0.184,0.195c-0.092,0.039-0.192,0.035-0.299-0.011c-0.091-0.046-0.157-0.115-0.195-0.207
			c-0.038-0.092-0.034-0.184,0.012-0.276l6.004-13.872c0.076-0.168,0.199-0.253,0.368-0.253c0.153,0,0.269,0.092,0.345,0.276
			L271.312,441.143z M261.582,436.013h6.694l-3.336-7.707L261.582,436.013z"/>
		<path fill="#FFFFFF" d="M272.946,427.409c0-0.092,0.034-0.176,0.104-0.253c0.069-0.077,0.149-0.115,0.242-0.115
			c0.123,0,0.218,0.039,0.287,0.115s0.104,0.161,0.104,0.253v13.527h6.418c0.245,0,0.368,0.13,0.368,0.391
			c0,0.092-0.035,0.173-0.104,0.242s-0.158,0.104-0.265,0.104h-6.855c-0.123,0-0.203-0.035-0.241-0.104
			c-0.039-0.069-0.058-0.149-0.058-0.242V427.409z"/>
	</g>
	<g>
		<path fill="#FFFFFF" d="M373.126,425.914c0.281,0,0.422,0.141,0.422,0.423c0,0.281-0.141,0.421-0.422,0.421h-4.406v15.618
			c0,0.282-0.141,0.423-0.421,0.423c-0.282,0-0.422-0.141-0.422-0.423v-15.618h-4.406c-0.282,0-0.422-0.14-0.422-0.421
			c0-0.282,0.141-0.423,0.422-0.423H373.126z"/>
		<path fill="#FFFFFF" d="M374.815,426.416c0-0.281,0.141-0.422,0.422-0.422h4.512c0.58,0,1.134,0.115,1.662,0.344
			c0.528,0.229,0.989,0.536,1.385,0.923c0.396,0.387,0.713,0.84,0.95,1.358c0.237,0.52,0.356,1.069,0.356,1.649
			c0,0.58-0.119,1.13-0.356,1.648c-0.237,0.519-0.554,0.973-0.95,1.358c-0.396,0.388-0.853,0.695-1.372,0.924
			c-0.519,0.229-1.068,0.343-1.648,0.343l4.801,7.598c0.158,0.247,0.123,0.44-0.105,0.581c-0.106,0.07-0.211,0.087-0.317,0.052
			c-0.105-0.035-0.194-0.096-0.264-0.185l-5.118-8.046h-3.113v7.835c0,0.282-0.141,0.423-0.422,0.423s-0.422-0.141-0.422-0.423
			V426.416z M375.659,426.837v6.86h4.142c0.493,0,0.95-0.088,1.372-0.264c0.422-0.176,0.787-0.422,1.095-0.739
			c0.307-0.316,0.549-0.681,0.725-1.095c0.175-0.413,0.264-0.857,0.264-1.332c0-0.492-0.089-0.945-0.264-1.359
			c-0.176-0.413-0.418-0.773-0.725-1.081c-0.309-0.308-0.673-0.55-1.095-0.726c-0.422-0.176-0.879-0.264-1.372-0.264H375.659z"/>
		<path fill="#FFFFFF" d="M386.871,426.416c0-0.281,0.141-0.422,0.422-0.422c0.281,0,0.422,0.141,0.422,0.422v15.96
			c0,0.282-0.141,0.423-0.422,0.423c-0.282,0-0.422-0.141-0.422-0.423V426.416z"/>
		<path fill="#FFFFFF" d="M399.666,437.944c0-0.545-0.105-1.024-0.316-1.438c-0.211-0.413-0.506-0.773-0.884-1.082
			c-0.378-0.307-0.822-0.581-1.333-0.818s-1.056-0.462-1.636-0.673c-0.545-0.158-1.121-0.351-1.728-0.581
			c-0.607-0.228-1.166-0.5-1.675-0.817c-0.511-0.317-0.933-0.681-1.266-1.095c-0.334-0.413-0.501-0.884-0.501-1.412
			c0-0.615,0.154-1.174,0.461-1.675s0.699-0.927,1.174-1.279c0.475-0.352,1.006-0.624,1.596-0.818
			c0.589-0.193,1.165-0.291,1.728-0.291c0.37,0,0.756,0.04,1.161,0.119c0.404,0.079,0.805,0.202,1.2,0.37
			c0.396,0.167,0.782,0.386,1.161,0.659c0.378,0.272,0.726,0.603,1.042,0.989c0.158,0.211,0.158,0.396,0,0.554
			c-0.158,0.159-0.316,0.22-0.475,0.185c-0.141-0.035-0.238-0.105-0.291-0.211c-0.281-0.404-0.589-0.726-0.923-0.963
			c-0.334-0.237-0.673-0.422-1.016-0.554c-0.343-0.132-0.673-0.22-0.989-0.264c-0.317-0.043-0.607-0.066-0.871-0.066
			c-0.404,0-0.844,0.057-1.319,0.172c-0.475,0.115-0.915,0.303-1.318,0.567c-0.405,0.264-0.743,0.603-1.016,1.016
			c-0.272,0.414-0.409,0.911-0.409,1.491c0,0.387,0.137,0.73,0.409,1.029c0.273,0.299,0.615,0.567,1.029,0.805
			s0.861,0.445,1.346,0.62c0.483,0.176,0.927,0.334,1.332,0.475c0.809,0.316,1.535,0.629,2.177,0.937
			c0.642,0.308,1.183,0.651,1.622,1.029c0.439,0.378,0.774,0.809,1.003,1.292c0.228,0.484,0.343,1.06,0.343,1.728
			c0,0.686-0.146,1.324-0.436,1.913c-0.29,0.589-0.681,1.1-1.173,1.53c-0.493,0.431-1.052,0.774-1.675,1.029
			c-0.625,0.255-1.28,0.383-1.966,0.383c-0.493,0-1.002-0.062-1.53-0.185c-0.528-0.123-1.029-0.299-1.504-0.528
			c-0.475-0.228-0.906-0.5-1.293-0.817s-0.677-0.677-0.871-1.082c-0.088-0.193-0.088-0.356,0-0.488
			c0.088-0.132,0.211-0.198,0.369-0.198c0.194,0,0.334,0.071,0.423,0.211c0.175,0.353,0.443,0.669,0.804,0.95
			c0.36,0.282,0.752,0.519,1.174,0.712c0.422,0.194,0.853,0.343,1.293,0.448c0.439,0.106,0.827,0.159,1.161,0.159
			c0.562,0,1.108-0.101,1.636-0.303s0.998-0.484,1.412-0.845c0.413-0.36,0.743-0.787,0.989-1.279
			C399.543,439.062,399.666,438.525,399.666,437.944z"/>
		<path fill="#FFFFFF" d="M410.772,425.914c0.281,0,0.422,0.141,0.422,0.423c0,0.281-0.141,0.421-0.422,0.421h-4.406v15.618
			c0,0.282-0.141,0.423-0.422,0.423c-0.282,0-0.422-0.141-0.422-0.423v-15.618h-4.405c-0.282,0-0.423-0.14-0.423-0.421
			c0-0.282,0.141-0.423,0.423-0.423H410.772z"/>
		<path fill="#FFFFFF" d="M413.279,442.799c-0.282,0-0.422-0.141-0.422-0.423v-15.96c0-0.281,0.14-0.422,0.422-0.422h8.468
			c0.281,0,0.422,0.141,0.422,0.422c0,0.282-0.141,0.422-0.422,0.422h-8.046v7.018h5.197c0.281,0,0.422,0.141,0.422,0.422
			c0,0.282-0.141,0.422-0.422,0.422h-5.197v7.255h8.046c0.281,0,0.422,0.141,0.422,0.421c0,0.282-0.141,0.423-0.422,0.423H413.279z"
			/>
		<path fill="#FFFFFF" d="M433.803,437.944c0-0.545-0.105-1.024-0.316-1.438c-0.211-0.413-0.506-0.773-0.884-1.082
			c-0.378-0.307-0.822-0.581-1.332-0.818c-0.511-0.237-1.055-0.462-1.636-0.673c-0.545-0.158-1.121-0.351-1.729-0.581
			c-0.606-0.228-1.166-0.5-1.675-0.817c-0.51-0.317-0.932-0.681-1.266-1.095c-0.334-0.413-0.501-0.884-0.501-1.412
			c0-0.615,0.154-1.174,0.461-1.675s0.7-0.927,1.174-1.279s1.006-0.624,1.596-0.818c0.59-0.193,1.165-0.291,1.729-0.291
			c0.369,0,0.756,0.04,1.161,0.119c0.404,0.079,0.804,0.202,1.2,0.37c0.396,0.167,0.782,0.386,1.161,0.659
			c0.378,0.272,0.725,0.603,1.042,0.989c0.159,0.211,0.159,0.396,0,0.554c-0.158,0.159-0.316,0.22-0.475,0.185
			c-0.14-0.035-0.237-0.105-0.29-0.211c-0.281-0.404-0.589-0.726-0.923-0.963c-0.334-0.237-0.673-0.422-1.016-0.554
			c-0.343-0.132-0.673-0.22-0.989-0.264c-0.317-0.043-0.607-0.066-0.871-0.066c-0.405,0-0.844,0.057-1.319,0.172
			c-0.475,0.115-0.915,0.303-1.319,0.567c-0.405,0.264-0.743,0.603-1.016,1.016c-0.272,0.414-0.409,0.911-0.409,1.491
			c0,0.387,0.137,0.73,0.409,1.029c0.273,0.299,0.615,0.567,1.029,0.805c0.413,0.237,0.861,0.445,1.345,0.62
			c0.483,0.176,0.928,0.334,1.332,0.475c0.809,0.316,1.535,0.629,2.177,0.937c0.642,0.308,1.183,0.651,1.623,1.029
			c0.439,0.378,0.773,0.809,1.002,1.292c0.229,0.484,0.344,1.06,0.344,1.728c0,0.686-0.146,1.324-0.436,1.913
			c-0.291,0.589-0.682,1.1-1.174,1.53c-0.493,0.431-1.051,0.774-1.676,1.029c-0.624,0.255-1.279,0.383-1.965,0.383
			c-0.493,0-1.003-0.062-1.53-0.185c-0.528-0.123-1.029-0.299-1.504-0.528c-0.475-0.228-0.906-0.5-1.293-0.817
			s-0.677-0.677-0.87-1.082c-0.089-0.193-0.089-0.356,0-0.488c0.087-0.132,0.211-0.198,0.369-0.198c0.193,0,0.334,0.071,0.422,0.211
			c0.176,0.353,0.444,0.669,0.805,0.95c0.36,0.282,0.752,0.519,1.174,0.712c0.422,0.194,0.853,0.343,1.292,0.448
			c0.439,0.106,0.827,0.159,1.161,0.159c0.562,0,1.108-0.101,1.635-0.303c0.528-0.202,0.999-0.484,1.412-0.845
			c0.413-0.36,0.742-0.787,0.989-1.279C433.68,439.062,433.803,438.525,433.803,437.944z"/>
		<path fill="#FFFFFF" d="M446.202,437.944c0-0.545-0.105-1.024-0.316-1.438c-0.21-0.413-0.505-0.773-0.884-1.082
			c-0.378-0.307-0.822-0.581-1.333-0.818c-0.51-0.237-1.055-0.462-1.636-0.673c-0.545-0.158-1.121-0.351-1.728-0.581
			c-0.607-0.228-1.166-0.5-1.675-0.817c-0.51-0.317-0.932-0.681-1.266-1.095c-0.334-0.413-0.501-0.884-0.501-1.412
			c0-0.615,0.154-1.174,0.462-1.675c0.307-0.501,0.699-0.927,1.174-1.279s1.006-0.624,1.596-0.818
			c0.589-0.193,1.165-0.291,1.729-0.291c0.37,0,0.756,0.04,1.161,0.119c0.405,0.079,0.805,0.202,1.2,0.37
			c0.396,0.167,0.783,0.386,1.161,0.659c0.378,0.272,0.726,0.603,1.042,0.989c0.159,0.211,0.159,0.396,0,0.554
			c-0.158,0.159-0.316,0.22-0.475,0.185c-0.141-0.035-0.237-0.105-0.291-0.211c-0.281-0.404-0.589-0.726-0.923-0.963
			c-0.334-0.237-0.673-0.422-1.016-0.554c-0.343-0.132-0.673-0.22-0.989-0.264c-0.317-0.043-0.607-0.066-0.871-0.066
			c-0.405,0-0.844,0.057-1.319,0.172c-0.476,0.115-0.915,0.303-1.319,0.567c-0.405,0.264-0.743,0.603-1.016,1.016
			c-0.272,0.414-0.409,0.911-0.409,1.491c0,0.387,0.136,0.73,0.409,1.029c0.273,0.299,0.615,0.567,1.029,0.805
			c0.413,0.237,0.861,0.445,1.345,0.62c0.484,0.176,0.928,0.334,1.333,0.475c0.809,0.316,1.534,0.629,2.176,0.937
			c0.642,0.308,1.183,0.651,1.623,1.029c0.439,0.378,0.773,0.809,1.002,1.292c0.229,0.484,0.343,1.06,0.343,1.728
			c0,0.686-0.145,1.324-0.435,1.913c-0.29,0.589-0.682,1.1-1.174,1.53c-0.493,0.431-1.051,0.774-1.675,1.029
			c-0.625,0.255-1.28,0.383-1.966,0.383c-0.492,0-1.002-0.062-1.53-0.185c-0.528-0.123-1.029-0.299-1.504-0.528
			c-0.475-0.228-0.906-0.5-1.292-0.817c-0.387-0.317-0.677-0.677-0.871-1.082c-0.088-0.193-0.088-0.356,0-0.488
			c0.088-0.132,0.21-0.198,0.37-0.198c0.193,0,0.333,0.071,0.422,0.211c0.175,0.353,0.443,0.669,0.804,0.95
			c0.36,0.282,0.752,0.519,1.174,0.712c0.422,0.194,0.853,0.343,1.292,0.448c0.439,0.106,0.827,0.159,1.161,0.159
			c0.562,0,1.108-0.101,1.635-0.303c0.528-0.202,0.998-0.484,1.412-0.845c0.413-0.36,0.743-0.787,0.989-1.279
			C446.079,439.062,446.202,438.525,446.202,437.944z"/>
		<path fill="#FFFFFF" d="M449.368,442.799c-0.282,0-0.422-0.141-0.422-0.423v-15.96c0-0.281,0.141-0.422,0.422-0.422h8.468
			c0.281,0,0.422,0.141,0.422,0.422c0,0.282-0.141,0.422-0.422,0.422h-8.046v7.018h5.198c0.28,0,0.421,0.141,0.421,0.422
			c0,0.282-0.141,0.422-0.421,0.422h-5.198v7.255h8.046c0.281,0,0.422,0.141,0.422,0.421c0,0.282-0.141,0.423-0.422,0.423H449.368z"
			/>
	</g>
	<g>
		<path fill="#FFFFFF" d="M544.353,427.558c0.012-0.113,0.088-0.195,0.226-0.245c0.164-0.038,0.283,0.019,0.358,0.17l4.318,10.69
			l4.317-10.69c0.088-0.151,0.201-0.214,0.34-0.188c0.138,0.025,0.219,0.113,0.245,0.264l1.603,11.407
			c0.025,0.201-0.062,0.314-0.264,0.339c-0.188,0.025-0.302-0.063-0.339-0.264l-1.433-10.332l-4.186,10.389
			c-0.05,0.138-0.129,0.208-0.236,0.208c-0.107,0-0.186-0.019-0.235-0.057c-0.038-0.025-0.076-0.075-0.113-0.151l-4.167-10.389
			l-1.433,10.332c-0.038,0.201-0.151,0.289-0.34,0.264c-0.201-0.025-0.289-0.138-0.264-0.339L544.353,427.558z"/>
		<path fill="#FFFFFF" d="M557.607,439.304c-0.201,0-0.302-0.101-0.302-0.302v-11.407c0-0.201,0.101-0.302,0.302-0.302h6.052
			c0.201,0,0.302,0.101,0.302,0.302s-0.101,0.302-0.302,0.302h-5.751v5.015h3.715c0.201,0,0.301,0.101,0.301,0.302
			s-0.101,0.302-0.301,0.302h-3.715v5.185h5.751c0.201,0,0.302,0.101,0.302,0.302c0,0.201-0.101,0.302-0.302,0.302H557.607z
			 M560.228,426.351c-0.038,0.063-0.098,0.107-0.179,0.132c-0.082,0.025-0.16,0.019-0.235-0.019c-0.088-0.05-0.145-0.119-0.17-0.208
			c-0.025-0.088-0.019-0.163,0.019-0.227l1.659-2.847c0.025-0.063,0.075-0.106,0.151-0.132c0.075-0.024,0.163-0.012,0.264,0.038
			c0.176,0.113,0.22,0.251,0.132,0.415L560.228,426.351z"/>
		<path fill="#FFFFFF" d="M565.319,427.614c0-0.075,0.028-0.145,0.084-0.207c0.057-0.063,0.123-0.095,0.198-0.095
			c0.101,0,0.179,0.032,0.235,0.095c0.057,0.062,0.085,0.132,0.085,0.207v11.086h5.26c0.201,0,0.302,0.107,0.302,0.32
			c0,0.076-0.028,0.142-0.085,0.198c-0.056,0.057-0.129,0.085-0.217,0.085h-5.619c-0.101,0-0.167-0.028-0.198-0.085
			s-0.047-0.123-0.047-0.198V427.614z"/>
		<path fill="#FFFFFF" d="M583.079,438.87c0.038,0.076,0.041,0.151,0.01,0.227c-0.032,0.076-0.085,0.132-0.16,0.17
			c-0.088,0.038-0.17,0.041-0.245,0.009c-0.076-0.031-0.126-0.085-0.151-0.16l-1.678-3.847h-6.015l-1.659,3.847
			c-0.025,0.075-0.075,0.129-0.151,0.16c-0.075,0.031-0.157,0.028-0.245-0.009c-0.075-0.038-0.129-0.094-0.16-0.17
			s-0.028-0.151,0.01-0.227l4.921-11.369c0.062-0.138,0.163-0.207,0.301-0.207c0.125,0,0.22,0.075,0.283,0.226L583.079,438.87z
			 M575.104,434.666h5.487l-2.734-6.316L575.104,434.666z"/>
		<path fill="#FFFFFF" d="M584.682,427.596c0-0.126,0.069-0.22,0.208-0.283c0.075-0.025,0.147-0.019,0.217,0.019
			c0.068,0.038,0.122,0.088,0.16,0.151l7.391,10.577v-10.464c0-0.201,0.101-0.302,0.302-0.302s0.302,0.101,0.302,0.302v11.407
			c0,0.201-0.101,0.302-0.302,0.302c-0.101,0-0.188-0.044-0.264-0.132l-7.41-10.615v10.445c0,0.201-0.101,0.302-0.301,0.302
			c-0.201,0-0.302-0.101-0.302-0.302V427.596z"/>
		<path fill="#FFFFFF" d="M600.897,427.897c-0.754,0-1.458,0.141-2.112,0.424c-0.654,0.283-1.223,0.669-1.707,1.16
			s-0.867,1.065-1.15,1.725c-0.283,0.66-0.424,1.361-0.424,2.102c0,0.754,0.142,1.458,0.424,2.112
			c0.283,0.654,0.666,1.223,1.15,1.707s1.053,0.867,1.707,1.15c0.653,0.283,1.357,0.424,2.112,0.424c0.83,0,1.622-0.176,2.375-0.528
			c0.754-0.352,1.376-0.848,1.867-1.49c0.05-0.075,0.125-0.113,0.226-0.113c0.201,0,0.302,0.101,0.302,0.302
			c0,0.051-0.025,0.113-0.076,0.188c-0.541,0.692-1.223,1.238-2.045,1.641c-0.823,0.402-1.707,0.604-2.649,0.604
			c-0.83,0-1.609-0.157-2.338-0.472c-0.729-0.314-1.364-0.741-1.905-1.282c-0.541-0.54-0.968-1.175-1.282-1.904
			c-0.314-0.729-0.472-1.508-0.472-2.338c0-0.615,0.091-1.209,0.273-1.782c0.182-0.572,0.434-1.096,0.754-1.574
			c0.32-0.478,0.704-0.905,1.15-1.282c0.446-0.377,0.94-0.679,1.48-0.905c0.364-0.163,0.738-0.283,1.122-0.358
			c0.383-0.076,0.776-0.113,1.178-0.113c0.817,0,1.603,0.154,2.357,0.462s1.401,0.745,1.942,1.311
			c0.101,0.101,0.161,0.173,0.179,0.217c0.019,0.044,0.028,0.091,0.028,0.141c0,0.176-0.094,0.264-0.283,0.264
			c-0.05,0-0.094-0.01-0.132-0.028c-0.038-0.019-0.107-0.079-0.207-0.179c-0.503-0.503-1.087-0.893-1.753-1.169
			C602.323,428.036,601.625,427.897,600.897,427.897z"/>
		<path fill="#FFFFFF" d="M612.379,427.294c0.83,0,1.609,0.157,2.338,0.471c0.729,0.314,1.367,0.745,1.914,1.292
			s0.978,1.185,1.292,1.914c0.314,0.729,0.471,1.508,0.471,2.338c0,0.83-0.157,1.609-0.471,2.338s-0.745,1.364-1.292,1.904
			c-0.547,0.541-1.185,0.968-1.914,1.282c-0.729,0.314-1.508,0.472-2.338,0.472s-1.609-0.157-2.338-0.472
			c-0.729-0.314-1.364-0.741-1.904-1.282c-0.541-0.54-0.968-1.175-1.282-1.904c-0.314-0.729-0.472-1.508-0.472-2.338
			c0-0.83,0.157-1.609,0.472-2.338c0.314-0.729,0.741-1.367,1.282-1.914c0.54-0.547,1.175-0.977,1.904-1.292
			C610.771,427.451,611.55,427.294,612.379,427.294z M612.379,427.897c-0.754,0-1.458,0.141-2.112,0.424
			c-0.654,0.283-1.223,0.669-1.706,1.16c-0.484,0.49-0.868,1.065-1.15,1.725c-0.283,0.66-0.424,1.361-0.424,2.102
			c0,0.754,0.142,1.458,0.424,2.112c0.283,0.654,0.666,1.223,1.15,1.707c0.483,0.484,1.052,0.867,1.706,1.15
			c0.653,0.283,1.357,0.424,2.112,0.424c0.741,0,1.442-0.141,2.102-0.424c0.66-0.283,1.235-0.666,1.726-1.15
			s0.876-1.053,1.159-1.707c0.283-0.653,0.424-1.357,0.424-2.112c0-0.741-0.142-1.442-0.424-2.102
			c-0.283-0.66-0.669-1.235-1.159-1.725s-1.065-0.877-1.726-1.16C613.822,428.039,613.121,427.897,612.379,427.897z"/>
		<path fill="#FFFFFF" d="M619.77,427.614c0-0.075,0.028-0.145,0.085-0.207c0.057-0.063,0.123-0.095,0.198-0.095
			c0.101,0,0.179,0.032,0.236,0.095c0.057,0.062,0.085,0.132,0.085,0.207v11.086h5.26c0.201,0,0.302,0.107,0.302,0.32
			c0,0.076-0.028,0.142-0.085,0.198s-0.129,0.085-0.217,0.085h-5.619c-0.101,0-0.167-0.028-0.198-0.085
			c-0.032-0.057-0.047-0.123-0.047-0.198V427.614z"/>
		<path fill="#FFFFFF" d="M627.312,427.596c0-0.201,0.101-0.302,0.302-0.302s0.302,0.101,0.302,0.302v11.407
			c0,0.201-0.101,0.302-0.302,0.302s-0.302-0.101-0.302-0.302V427.596z"/>
		<path fill="#FFFFFF" d="M635.136,427.294c0.83,0,1.609,0.157,2.338,0.471c0.729,0.314,1.367,0.745,1.914,1.292
			c0.547,0.547,0.978,1.185,1.292,1.914c0.314,0.729,0.472,1.508,0.472,2.338c0,0.629-0.091,1.226-0.273,1.792
			c-0.183,0.565-0.434,1.087-0.754,1.565c-0.32,0.478-0.707,0.902-1.159,1.272c-0.453,0.371-0.949,0.669-1.49,0.896l-0.358,0.151
			c0.1,0.251,0.27,0.458,0.509,0.622c0.238,0.163,0.509,0.251,0.811,0.264h0.038c0.201,0,0.302,0.101,0.302,0.302
			c0,0.201-0.101,0.302-0.302,0.302h-0.038c-0.44-0.013-0.833-0.142-1.179-0.387s-0.588-0.556-0.726-0.933
			c-0.465,0.101-0.937,0.151-1.414,0.151c-0.842,0-1.615-0.157-2.319-0.472c-0.541-0.226-1.034-0.524-1.48-0.896
			c-0.446-0.371-0.83-0.794-1.15-1.272c-0.32-0.478-0.572-1-0.754-1.565c-0.183-0.566-0.273-1.163-0.273-1.792
			c0-0.83,0.157-1.609,0.471-2.338c0.314-0.729,0.742-1.367,1.282-1.914c0.54-0.547,1.175-0.977,1.904-1.292
			C633.527,427.451,634.307,427.294,635.136,427.294z M633.043,437.23c0-0.289,0.053-0.559,0.16-0.811
			c0.106-0.251,0.254-0.472,0.443-0.66c0.188-0.188,0.408-0.336,0.66-0.443c0.251-0.106,0.521-0.16,0.811-0.16
			s0.56,0.054,0.811,0.16c0.251,0.107,0.471,0.254,0.66,0.443c0.189,0.188,0.336,0.409,0.443,0.66
			c0.106,0.251,0.16,0.521,0.16,0.811c0,0.227-0.025,0.446-0.075,0.66c-0.051,0.214-0.12,0.39-0.208,0.528l0.32-0.132
			c0.49-0.201,0.939-0.468,1.348-0.802c0.408-0.333,0.76-0.716,1.056-1.15s0.521-0.908,0.679-1.424
			c0.157-0.515,0.235-1.049,0.235-1.603c0-0.741-0.141-1.442-0.424-2.102c-0.283-0.66-0.669-1.235-1.159-1.725
			s-1.065-0.877-1.726-1.16c-0.66-0.283-1.36-0.424-2.102-0.424c-0.754,0-1.458,0.141-2.112,0.424s-1.223,0.669-1.706,1.16
			c-0.484,0.49-0.867,1.065-1.15,1.725c-0.283,0.66-0.424,1.361-0.424,2.102c0,0.554,0.079,1.088,0.236,1.603
			c0.157,0.516,0.38,0.99,0.669,1.424s0.638,0.817,1.046,1.15c0.408,0.333,0.858,0.601,1.348,0.802l0.377,0.151
			C633.169,438.085,633.043,437.683,633.043,437.23z M633.647,437.23c0,0.403,0.144,0.748,0.433,1.037
			c0.29,0.289,0.635,0.434,1.037,0.434c0.415-0.012,0.764-0.16,1.046-0.443c0.283-0.283,0.424-0.625,0.424-1.028
			c0-0.402-0.145-0.748-0.434-1.037c-0.289-0.289-0.635-0.434-1.037-0.434s-0.748,0.145-1.037,0.434
			C633.791,436.482,633.647,436.828,633.647,437.23z"/>
		<path fill="#FFFFFF" d="M642.716,427.596c0-0.201,0.101-0.302,0.301-0.302c0.201,0,0.302,0.101,0.302,0.302v7.598
			c0,0.478,0.091,0.927,0.273,1.348s0.427,0.792,0.736,1.112c0.308,0.32,0.675,0.575,1.103,0.764s0.886,0.283,1.376,0.283
			c0.478,0,0.93-0.091,1.357-0.273c0.427-0.182,0.801-0.434,1.122-0.754c0.32-0.321,0.575-0.691,0.763-1.112
			c0.188-0.421,0.283-0.871,0.283-1.349v-7.655c0-0.201,0.101-0.301,0.302-0.301c0.201,0,0.301,0.101,0.301,0.301v7.655
			c0,0.566-0.11,1.097-0.33,1.593c-0.22,0.497-0.519,0.931-0.896,1.301c-0.377,0.371-0.814,0.663-1.311,0.877
			c-0.497,0.213-1.027,0.32-1.593,0.32c-0.565,0-1.097-0.107-1.593-0.32c-0.497-0.214-0.93-0.506-1.301-0.877
			c-0.371-0.371-0.663-0.805-0.876-1.301c-0.214-0.496-0.32-1.027-0.32-1.593V427.596z"/>
		<path fill="#FFFFFF" d="M652.784,439.304c-0.201,0-0.302-0.101-0.302-0.302v-11.407c0-0.201,0.101-0.302,0.302-0.302h6.052
			c0.201,0,0.302,0.101,0.302,0.302s-0.101,0.302-0.302,0.302h-5.75v5.015h3.714c0.201,0,0.302,0.101,0.302,0.302
			s-0.101,0.302-0.302,0.302h-3.714v5.185h5.75c0.201,0,0.302,0.101,0.302,0.302c0,0.201-0.101,0.302-0.302,0.302H652.784z"/>
	</g>
</g>
<g id="Calque_2">
	<rect x="990.86" y="282.36" opacity="0.7" fill="#3C3C3B" width="639.999" height="959.999"/>
	<path fill="#FFFFFF" d="M1560.569,57.048h-18.397v-2.903c0-4.144-3.36-7.52-7.504-7.52h-115.41c-4.144,0-7.535,3.375-7.535,7.52
		v2.903h-340.85c-62.696,0-113.706,51.01-113.706,113.706v13.529h-4.828c-4.143,0-7.51,3.376-7.51,7.527v57.795
		c0,4.135,3.367,7.51,7.51,7.51h4.828v100.046h-4.828c-4.143,0-7.51,3.369-7.51,7.51v38.583c0,4.158,3.367,7.534,7.51,7.534h4.828
		v61.611h-4.828c-4.143,0-7.51,3.378-7.51,7.536v38.574c0,4.142,3.367,7.519,7.51,7.519h4.828v867.495
		c0,62.695,51.01,113.697,113.706,113.697h489.696c62.68,0,113.682-51.002,113.682-113.697V170.754
		C1674.25,108.058,1623.249,57.048,1560.569,57.048z M1631.044,1243.096H990.806V282.738h640.238V1243.096z"/>
	<path fill="#000100" d="M1560.569,57.048h-18.397v-2.903c0-4.144-3.36-7.52-7.504-7.52h-115.41c-4.144,0-7.535,3.375-7.535,7.52
		v2.903h-340.85c-62.696,0-113.706,51.01-113.706,113.706v13.529h-4.828c-4.143,0-7.51,3.376-7.51,7.527v57.795
		c0,4.135,3.367,7.51,7.51,7.51h4.828v100.046h-4.828c-4.143,0-7.51,3.369-7.51,7.51v38.583c0,4.158,3.367,7.534,7.51,7.534h4.828
		v61.611h-4.828c-4.143,0-7.51,3.378-7.51,7.536v38.574c0,4.142,3.367,7.519,7.51,7.519h4.828v867.495
		c0,62.695,51.01,113.697,113.706,113.697h489.696c62.68,0,113.682-51.002,113.682-113.697V170.754
		C1674.25,108.058,1623.249,57.048,1560.569,57.048z M1258.716,169.049h104.354c7.845,0,14.271,5.562,14.271,12.411
		c0,6.843-6.426,12.404-14.271,12.404h-104.354c-7.878,0-14.271-5.562-14.271-12.404
		C1244.446,174.611,1250.838,169.049,1258.716,169.049z M1204.453,169.45c6.622,0,12.005,5.382,12.005,12.011
		c0,6.63-5.383,12.005-12.005,12.005s-12.004-5.375-12.004-12.005C1192.449,174.832,1197.831,169.45,1204.453,169.45z
		 M1310.926,1441.592c-38.9,0-70.429-31.545-70.429-70.428c0-38.9,31.528-70.426,70.429-70.426
		c38.883,0,70.426,31.525,70.426,70.426C1381.352,1410.047,1349.809,1441.592,1310.926,1441.592z M1631.044,1243.096H990.806
		V282.738h640.238V1243.096z"/>
	
		<rect x="990.859" y="282.478" fill="none" stroke="#3C3C3B" stroke-width="5" stroke-miterlimit="10" width="640" height="959.999"/>
	<rect x="1025.54" y="642.253" opacity="0.6" fill="#FFFFFF" width="568" height="509.622"/>
	<rect x="1077.206" y="688.609" fill="none" width="465" height="417.208"/>
	<text transform="matrix(1 0 0 1 1077.2056 711.541)"><tspan x="0" y="0" font-family="'Antipasto-ExtraLight'" font-size="36">Quam</tspan><tspan x="87.047" y="0" font-family="'Antipasto-ExtraLight'" font-size="36" letter-spacing="23"> </tspan><tspan x="115.354" y="0" font-family="'Antipasto-ExtraLight'" font-size="36">ob</tspan><tspan x="155.709" y="0" font-family="'Antipasto-ExtraLight'" font-size="36" letter-spacing="23"> </tspan><tspan x="184.015" y="0" font-family="'Antipasto-ExtraLight'" font-size="36">rem</tspan><tspan x="240.102" y="0" font-family="'Antipasto-ExtraLight'" font-size="36" letter-spacing="23"> </tspan><tspan x="268.408" y="0" font-family="'Antipasto-ExtraLight'" font-size="36">circumspecta </tspan><tspan x="0" y="43.2" font-family="'Antipasto-ExtraLight'" font-size="36">cautela</tspan><tspan x="110.194" y="43.2" font-family="'Antipasto-ExtraLight'" font-size="36" letter-spacing="62"> </tspan><tspan x="177.332" y="43.2" font-family="'Antipasto-ExtraLight'" font-size="36">observatum</tspan><tspan x="351.855" y="43.2" font-family="'Antipasto-ExtraLight'" font-size="36" letter-spacing="62"> </tspan><tspan x="418.994" y="43.2" font-family="'Antipasto-ExtraLight'" font-size="36">est </tspan><tspan x="0" y="86.4" font-family="'Antipasto-ExtraLight'" font-size="36">deinceps</tspan><tspan x="134.529" y="86.4" font-family="'Antipasto-ExtraLight'" font-size="36" letter-spacing="7"> </tspan><tspan x="146.516" y="86.4" font-family="'Antipasto-ExtraLight'" font-size="36">et</tspan><tspan x="177.224" y="86.4" font-family="'Antipasto-ExtraLight'" font-size="36" letter-spacing="7"> </tspan><tspan x="189.21" y="86.4" font-family="'Antipasto-ExtraLight'" font-size="36">cum</tspan><tspan x="248.068" y="86.4" font-family="'Antipasto-ExtraLight'" font-size="36" letter-spacing="7"> </tspan><tspan x="260.056" y="86.4" font-family="'Antipasto-ExtraLight'" font-size="36">edita</tspan><tspan x="335.799" y="86.4" font-family="'Antipasto-ExtraLight'" font-size="36" letter-spacing="7"> </tspan><tspan x="347.785" y="86.4" font-family="'Antipasto-ExtraLight'" font-size="36">montium </tspan><tspan x="0" y="129.6" font-family="'Antipasto-ExtraLight'" font-size="36">petere</tspan><tspan x="102.166" y="129.6" font-family="'Antipasto-ExtraLight'" font-size="36" letter-spacing="13"> </tspan><tspan x="120.507" y="129.6" font-family="'Antipasto-ExtraLight'" font-size="36">coeperint</tspan><tspan x="261.156" y="129.6" font-family="'Antipasto-ExtraLight'" font-size="36" letter-spacing="13"> </tspan><tspan x="279.497" y="129.6" font-family="'Antipasto-ExtraLight'" font-size="36">grassatores, </tspan><tspan x="0" y="172.801" font-family="'Antipasto-ExtraLight'" font-size="36">loci</tspan><tspan x="47.446" y="172.801" font-family="'Antipasto-ExtraLight'" font-size="36" letter-spacing="14"> </tspan><tspan x="66.039" y="172.801" font-family="'Antipasto-ExtraLight'" font-size="36">iniquitati</tspan><tspan x="177.458" y="172.801" font-family="'Antipasto-ExtraLight'" font-size="36" letter-spacing="14"> </tspan><tspan x="196.051" y="172.801" font-family="'Antipasto-ExtraLight'" font-size="36">milites</tspan><tspan x="280.829" y="172.801" font-family="'Antipasto-ExtraLight'" font-size="36" letter-spacing="14"> </tspan><tspan x="299.422" y="172.801" font-family="'Antipasto-ExtraLight'" font-size="36">cedunt.</tspan><tspan x="405.908" y="172.801" font-family="'Antipasto-ExtraLight'" font-size="36" letter-spacing="14"> </tspan><tspan x="424.502" y="172.801" font-family="'Antipasto-ExtraLight'" font-size="36">ubi </tspan><tspan x="0" y="216" font-family="'Antipasto-ExtraLight'" font-size="36">autem</tspan><tspan x="92.086" y="216" font-family="'Antipasto-ExtraLight'" font-size="36"> </tspan><tspan x="95.767" y="216" font-family="'Antipasto-ExtraLight'" font-size="36">in</tspan><tspan x="116.323" y="216" font-family="'Antipasto-ExtraLight'" font-size="36"> </tspan><tspan x="120.003" y="216" font-family="'Antipasto-ExtraLight'" font-size="36">planitie</tspan><tspan x="221.09" y="216" font-family="'Antipasto-ExtraLight'" font-size="36"> </tspan><tspan x="224.771" y="216" font-family="'Antipasto-ExtraLight'" font-size="36">potuerint</tspan><tspan x="353.576" y="216" font-family="'Antipasto-ExtraLight'" font-size="36"> </tspan><tspan x="357.257" y="216" font-family="'Antipasto-ExtraLight'" font-size="36">reperiri, </tspan><tspan x="0" y="259.2" font-family="'Antipasto-ExtraLight'" font-size="36">quod</tspan><tspan x="76.391" y="259.2" font-family="'Antipasto-ExtraLight'" font-size="36" letter-spacing="25"> </tspan><tspan x="106.869" y="259.2" font-family="'Antipasto-ExtraLight'" font-size="36">contingit</tspan><tspan x="227.504" y="259.2" font-family="'Antipasto-ExtraLight'" font-size="36" letter-spacing="25"> </tspan><tspan x="257.982" y="259.2" font-family="'Antipasto-ExtraLight'" font-size="36">adsidue,</tspan><tspan x="380.272" y="259.2" font-family="'Antipasto-ExtraLight'" font-size="36" letter-spacing="25"> </tspan><tspan x="410.75" y="259.2" font-family="'Antipasto-ExtraLight'" font-size="36">nec </tspan><tspan x="0" y="302.4" font-family="'Antipasto-ExtraLight'" font-size="36">exsertare</tspan><tspan x="149.253" y="302.4" font-family="'Antipasto-ExtraLight'" font-size="36" letter-spacing="2"> </tspan><tspan x="156.296" y="302.4" font-family="'Antipasto-ExtraLight'" font-size="36">lacertos</tspan><tspan x="276.498" y="302.4" font-family="'Antipasto-ExtraLight'" font-size="36" letter-spacing="2"> </tspan><tspan x="283.541" y="302.4" font-family="'Antipasto-ExtraLight'" font-size="36">nec</tspan><tspan x="337.792" y="302.4" font-family="'Antipasto-ExtraLight'" font-size="36" letter-spacing="2"> </tspan><tspan x="344.836" y="302.4" font-family="'Antipasto-ExtraLight'" font-size="36">crispare </tspan><tspan x="0" y="345.6" font-family="'Antipasto-ExtraLight'" font-size="36">permissi</tspan><tspan x="115.81" y="345.6" font-family="'Antipasto-ExtraLight'" font-size="36" letter-spacing="9"> </tspan><tspan x="129.731" y="345.6" font-family="'Antipasto-ExtraLight'" font-size="36">tela,</tspan><tspan x="191.326" y="345.6" font-family="'Antipasto-ExtraLight'" font-size="36" letter-spacing="9"> </tspan><tspan x="205.248" y="345.6" font-family="'Antipasto-ExtraLight'" font-size="36">quae</tspan><tspan x="281.998" y="345.6" font-family="'Antipasto-ExtraLight'" font-size="36" letter-spacing="9"> </tspan><tspan x="295.92" y="345.6" font-family="'Antipasto-ExtraLight'" font-size="36">vehunt</tspan><tspan x="389.986" y="345.6" font-family="'Antipasto-ExtraLight'" font-size="36" letter-spacing="9"> </tspan><tspan x="403.908" y="345.6" font-family="'Antipasto-ExtraLight'" font-size="36">bina </tspan><tspan x="0" y="388.801" font-family="'Antipasto-ExtraLight'" font-size="36">vel</tspan><tspan x="41.002" y="388.801" font-family="'Antipasto-ExtraLight'" font-size="36" letter-spacing="9"> </tspan><tspan x="54.979" y="388.801" font-family="'Antipasto-ExtraLight'" font-size="36">terna,</tspan><tspan x="138.677" y="388.801" font-family="'Antipasto-ExtraLight'" font-size="36" letter-spacing="9"> </tspan><tspan x="152.654" y="388.801" font-family="'Antipasto-ExtraLight'" font-size="36">pecudum</tspan><tspan x="287.902" y="388.801" font-family="'Antipasto-ExtraLight'" font-size="36" letter-spacing="9"> </tspan><tspan x="301.879" y="388.801" font-family="'Antipasto-ExtraLight'" font-size="36">ritu</tspan><tspan x="343.53" y="388.801" font-family="'Antipasto-ExtraLight'" font-size="36" letter-spacing="9"> </tspan><tspan x="357.507" y="388.801" font-family="'Antipasto-ExtraLight'" font-size="36">inertium </tspan></text>
</g>
<g id="titre">
	<path fill="#FFFFFF" d="M2463.395,52.701h-18.397v-2.903c0-4.144-3.36-7.52-7.504-7.52h-115.41c-4.144,0-7.535,3.375-7.535,7.52
		v2.903h-340.85c-62.696,0-113.706,51.01-113.706,113.706v13.529h-4.828c-4.143,0-7.51,3.376-7.51,7.527v57.795
		c0,4.135,3.367,7.51,7.51,7.51h4.828v100.046h-4.828c-4.143,0-7.51,3.369-7.51,7.51v38.583c0,4.158,3.367,7.534,7.51,7.534h4.828
		v61.611h-4.828c-4.143,0-7.51,3.378-7.51,7.536v38.574c0,4.142,3.367,7.519,7.51,7.519h4.828v867.495
		c0,62.695,51.01,113.697,113.706,113.697h489.696c62.68,0,113.682-51.002,113.682-113.697V166.407
		C2577.077,103.711,2526.075,52.701,2463.395,52.701z M2533.871,1238.748h-640.238V278.391h640.238V1238.748z"/>
	<path fill="#000100" d="M2463.395,52.701h-18.397v-2.903c0-4.144-3.36-7.52-7.504-7.52h-115.41c-4.144,0-7.535,3.375-7.535,7.52
		v2.903h-340.85c-62.696,0-113.706,51.01-113.706,113.706v13.529h-4.828c-4.143,0-7.51,3.376-7.51,7.527v57.795
		c0,4.135,3.367,7.51,7.51,7.51h4.828v100.046h-4.828c-4.143,0-7.51,3.369-7.51,7.51v38.583c0,4.158,3.367,7.534,7.51,7.534h4.828
		v61.611h-4.828c-4.143,0-7.51,3.378-7.51,7.536v38.574c0,4.142,3.367,7.519,7.51,7.519h4.828v867.495
		c0,62.695,51.01,113.697,113.706,113.697h489.696c62.68,0,113.682-51.002,113.682-113.697V166.407
		C2577.077,103.711,2526.075,52.701,2463.395,52.701z M2161.542,164.702h104.354c7.845,0,14.271,5.562,14.271,12.411
		c0,6.843-6.426,12.404-14.271,12.404h-104.354c-7.878,0-14.271-5.562-14.271-12.404
		C2147.272,170.264,2153.665,164.702,2161.542,164.702z M2107.279,165.103c6.622,0,12.005,5.382,12.005,12.011
		c0,6.63-5.383,12.005-12.005,12.005s-12.004-5.375-12.004-12.005C2095.275,170.485,2100.657,165.103,2107.279,165.103z
		 M2213.752,1437.244c-38.9,0-70.429-31.545-70.429-70.428c0-38.9,31.528-70.426,70.429-70.426
		c38.883,0,70.426,31.525,70.426,70.426C2284.178,1405.699,2252.635,1437.244,2213.752,1437.244z M2533.871,1238.748h-640.238
		V278.391h640.238V1238.748z"/>
	<rect x="1894.35" y="277.478" opacity="0.7" fill="#3C3C3B" width="639.999" height="959.999"/>
	<rect x="1893.632" y="277.478" width="641.434" height="213.669"/>
	<circle fill="#FFFFFF" cx="2066.566" cy="419.584" r="36"/>
	<circle fill="#FFFFFF" cx="2210.566" cy="419.584" r="36"/>
	<circle fill="#FFFFFF" cx="2363.566" cy="419.584" r="36"/>
	<circle fill="#FFFFFF" cx="2120.566" cy="437.584" r="18"/>
	<circle fill="#FFFFFF" cx="2264.566" cy="437.584" r="18"/>
	<circle fill="#FFFFFF" cx="2309.566" cy="437.584" r="18"/>
	<rect x="2066.566" y="426.834" width="36" height="2"/>
	<rect x="2066.566" y="426.834" width="2" height="6"/>
	<rect x="2111.691" y="444.584" width="26.875" height="1.997"/>
	<rect x="2174.566" y="399.584" width="72" height="2"/>
	<rect x="2209.566" y="399.584" width="2" height="56.5"/>
	<rect x="2255.691" y="444.524" width="26.875" height="1.997"/>
	
		<rect x="2291.571" y="436.585" transform="matrix(-0.7071 -0.7071 0.7071 -0.7071 3633.2566 2380.1111)" width="35.989" height="1.997"/>
	
		<rect x="2291.572" y="436.586" transform="matrix(0.7071 -0.7071 0.7071 0.7071 367.0627 1761.3126)" width="35.989" height="1.997"/>
	<rect x="2327.566" y="399.542" width="72" height="2"/>
	<rect x="2362.566" y="399.542" width="2" height="56.042"/>
	
		<rect x="1894.349" y="277.478" fill="none" stroke="#3C3C3B" stroke-width="5" stroke-miterlimit="10" width="640" height="959.999"/>
</g>
</svg>
