<?xml version="1.0" encoding="UTF-8" standalone="no"?>
<!-- Created with Inkscape (http://www.inkscape.org/) -->

<svg
   xmlns:dc="http://purl.org/dc/elements/1.1/"
   xmlns:cc="http://creativecommons.org/ns#"
   xmlns:rdf="http://www.w3.org/1999/02/22-rdf-syntax-ns#"
   xmlns:svg="http://www.w3.org/2000/svg"
   xmlns="http://www.w3.org/2000/svg"
   version="1.1"
   width="168"
   height="238"
   id="svg10284">
  <defs
     id="defs10286">
    <linearGradient
       x1="393.90039"
       y1="446"
       x2="561.90039"
       y2="446"
       id="SVGID_301_"
       gradientUnits="userSpaceOnUse">
      <stop
         id="stop3012"
         style="stop-color:#a8e5f6;stop-opacity:1"
         offset="0.1" />
      <stop
         id="stop3014"
         style="stop-color:#a0eaf3;stop-opacity:1"
         offset="0.37149999" />
      <stop
         id="stop3016"
         style="stop-color:#8af8ec;stop-opacity:1"
         offset="0.79659998" />
      <stop
         id="stop3018"
         style="stop-color:#83fcea;stop-opacity:1"
         offset="0.89999998" />
    </linearGradient>
    <linearGradient
       x1="393.90039"
       y1="229.5"
       x2="561.90039"
       y2="229.5"
       id="SVGID_302_"
       gradientUnits="userSpaceOnUse">
      <stop
         id="stop3023"
         style="stop-color:#a8e5f6;stop-opacity:1"
         offset="0.1" />
      <stop
         id="stop3025"
         style="stop-color:#a0eaf3;stop-opacity:1"
         offset="0.37149999" />
      <stop
         id="stop3027"
         style="stop-color:#8af8ec;stop-opacity:1"
         offset="0.79659998" />
      <stop
         id="stop3029"
         style="stop-color:#83fcea;stop-opacity:1"
         offset="0.89999998" />
    </linearGradient>
  </defs>
  <metadata
     id="metadata10289">
    <rdf:RDF>
      <cc:Work
         rdf:about="">
        <dc:format>image/svg+xml</dc:format>
        <dc:type
           rdf:resource="http://purl.org/dc/dcmitype/StillImage" />
        <dc:title></dc:title>
      </cc:Work>
    </rdf:RDF>
  </metadata>
  <g
     transform="translate(0,-814.36217)"
     id="layer1">
    <g
       transform="translate(-393.89999,596.36217)"
       id="g10074">
      <rect
         width="168"
         height="238"
         x="393.89999"
         y="218"
         id="rect411"
         style="fill:#ffffff" />
      <path
         d="m 532.536,377.811 c 0,3.135 -2.54,5.677 -5.675,5.677 h -97.748 c -3.135,0 -5.676,-2.542 -5.676,-5.677 l 0,0 c 0,-3.134 2.541,-5.675 5.676,-5.675 h 97.748 c 3.135,0 5.675,2.541 5.675,5.675 l 0,0 z"
         id="path2979"
         style="fill:#f4f4f4;stroke:#d6d6d6;stroke-width:0.25;stroke-miterlimit:10" />
      <circle
         cx="429.271"
         cy="377.96899"
         r="5.8330002"
         id="circle2981"
         style="fill:#ffffff;stroke:#d6d6d6;stroke-width:0.25;stroke-miterlimit:10" />
      <circle
         cx="526.70398"
         cy="377.96899"
         r="5.8330002"
         id="circle2983"
         style="fill:#ffffff;stroke:#d6d6d6;stroke-width:0.25;stroke-miterlimit:10" />
      <rect
         width="1.682"
         height="17.237"
         x="477.686"
         y="369.509"
         id="rect2985"
         style="fill:#ffffff;stroke:#d6d6d6;stroke-width:0.25;stroke-miterlimit:10" />
      <circle
         cx="447.21701"
         cy="289.86499"
         r="5.9120002"
         id="circle2987"
         style="fill:none;stroke:#d6d6d6;stroke-width:0.25;stroke-miterlimit:10" />
      <circle
         cx="447.216"
         cy="289.86499"
         r="2.237"
         id="circle2989"
         style="fill:#ffff00" />
      <circle
         cx="477.73999"
         cy="289.86499"
         r="5.9120002"
         id="circle2991"
         style="fill:none;stroke:#d6d6d6;stroke-width:0.25;stroke-miterlimit:10" />
      <circle
         cx="477.73999"
         cy="289.86499"
         r="2.2360001"
         id="circle2993"
         style="fill:#f993a9" />
      <circle
         cx="508.155"
         cy="289.86499"
         r="5.9109998"
         id="circle2995"
         style="fill:none;stroke:#d6d6d6;stroke-width:0.25;stroke-miterlimit:10" />
      <circle
         cx="508.155"
         cy="289.86499"
         r="2.237"
         id="circle2997"
         style="fill:#dd0a0a" />
      <circle
         cx="447.21701"
         cy="313.50601"
         r="5.9120002"
         id="circle2999"
         style="fill:none;stroke:#d6d6d6;stroke-width:0.25;stroke-miterlimit:10" />
      <circle
         cx="447.216"
         cy="313.50601"
         r="2.237"
         id="circle3001"
         style="fill:#e7c5ea" />
      <circle
         cx="477.73999"
         cy="313.50601"
         r="5.9120002"
         id="circle3003"
         style="fill:none;stroke:#d6d6d6;stroke-width:0.25;stroke-miterlimit:10" />
      <circle
         cx="477.73999"
         cy="313.50601"
         r="2.2360001"
         id="circle3005"
         style="fill:#83fcea" />
      <circle
         cx="508.155"
         cy="313.50601"
         r="5.9109998"
         id="circle3007"
         style="fill:none;stroke:#d6d6d6;stroke-width:0.25;stroke-miterlimit:10" />
      <circle
         cx="508.155"
         cy="313.50601"
         r="2.237"
         id="circle3009"
         style="fill:#a8e5f6" />
      <polygon
         points="393.9,436 561.9,436 561.9,456 420.904,456 393.9,456 "
         id="polygon3020"
         style="fill:url(#SVGID_301_)" />
      <polygon
         points="393.9,215 561.9,215 561.9,244 421.832,244 393.9,244 "
         id="polygon3031"
         style="fill:url(#SVGID_302_)" />
      <rect
         width="167.021"
         height="30.110001"
         x="394.17499"
         y="224"
         id="rect3035"
         style="fill:none" />
      <text
         x="450.31049"
         y="234.5"
         id="text3037"
         style="font-size:15px;fill:#ffffff;font-family:Quicksand-Regular">GeText</text>
      <rect
         width="167.021"
         height="30.110001"
         x="394.17499"
         y="224"
         id="rect3041"
         style="fill:none" />
      <text
         x="450.31049"
         y="234.5"
         id="text3043"
         style="font-size:15px;fill:#ffffff;font-family:Quicksand-Regular">GeText</text>
      <path
         d="m 400.481,225.931 c 0,0 1.134,-1.798 1.544,-1.017 0.41,0.782 0.333,1.408 0.802,1.017 0.469,-0.391 0.782,-1.723 1.329,-1.213 0.547,0.51 0.86,2.313 1.173,1.333 0.313,-0.98 0.548,-2.388 1.017,-2.388 0.469,0 1.767,1.72 2.057,1.955 0.289,0.234 10.298,0.156 10.298,0.156"
         id="path3045"
         style="fill:none;stroke:#ffffff;stroke-width:0.5;stroke-miterlimit:10" />
      <path
         d="m 400.481,231.593 c 0,0 1.134,-1.798 1.544,-1.017 0.41,0.782 0.333,1.408 0.802,1.017 0.469,-0.391 0.782,-1.723 1.329,-1.213 0.547,0.51 0.86,2.313 1.173,1.333 0.313,-0.98 0.548,-2.388 1.017,-2.388 0.469,0 1.767,1.72 2.057,1.955 0.289,0.234 10.298,0.156 10.298,0.156"
         id="path3047"
         style="fill:none;stroke:#ffffff;stroke-width:0.5;stroke-miterlimit:10" />
      <path
         d="m 400.481,236.316 c 0,0 1.134,-1.798 1.544,-1.017 0.41,0.782 0.333,1.408 0.802,1.017 0.469,-0.391 0.782,-1.723 1.329,-1.213 0.547,0.51 0.86,2.313 1.173,1.333 0.313,-0.98 0.548,-2.388 1.017,-2.388 0.469,0 1.767,1.72 2.057,1.955 0.289,0.234 10.298,0.156 10.298,0.156"
         id="path3049"
         style="fill:none;stroke:#ffffff;stroke-width:0.5;stroke-miterlimit:10" />
      <path
         d="M 476.147,450.363"
         id="path3133"
         style="fill:none;stroke:#ffffff;stroke-width:0.75;stroke-miterlimit:10" />
      <path
         d="M 480.448,446.062"
         id="path3135"
         style="fill:none;stroke:#ffffff;stroke-width:0.75;stroke-miterlimit:10" />
      <path
         d="M 454.326,441.762"
         id="path3137"
         style="fill:#ffffff" />
      <line
         style="fill:#ffffff"
         id="line3139"
         y2="441.76199"
         x2="452.96301"
         y1="443.125"
         x1="452.96301" />
      <circle
         cx="478.147"
         cy="446.38101"
         r="7.3140001"
         id="circle3169"
         style="fill:none;stroke:#ffffff;stroke-width:0.25;stroke-miterlimit:10" />
      <line
         style="fill:none;stroke:#ffffff;stroke-width:0.75;stroke-miterlimit:10"
         id="line3173"
         y2="451.151"
         x2="478.146"
         y1="442.24701"
         x1="478.146"
         stroke-miterlimit="10" />
      <line
         style="fill:none;stroke:#ffffff;stroke-width:0.75;stroke-miterlimit:10"
         id="line3175"
         y2="446.69901"
         x2="482.599"
         y1="446.69901"
         x1="473.69601"
         stroke-miterlimit="10" />
      <rect
         width="56.648998"
         height="4.9879999"
         x="421.94901"
         y="330.01199"
         id="rect3179"
         style="fill:none" />
      <text
         x="421.94919"
         y="334.91159"
         id="text3181">
        <tspan
           x="421.94919"
           y="334.91159"
           id="tspan3183"
           style="font-size:7px;fill:#e7c5ea;font-family:Quicksand-Regular">mélanco</tspan>
        <tspan
           x="457.2142"
           y="334.91159"
           id="tspan3185"
           style="font-size:7px;fill:#e7c5ea;font-family:Quicksand-Regular">-</tspan>
      </text>
      <line
         style="fill:none;stroke:#e7c5ea;stroke-width:0.75;stroke-miterlimit:10"
         id="line3187"
         y2="327"
         x2="447.21701"
         y1="319.418"
         x1="447.21701"
         stroke-miterlimit="10" />
    </g>
  </g>
</svg>
