<?xml version="1.0" encoding="UTF-8" standalone="no"?>
<!-- Created with Inkscape (http://www.inkscape.org/) -->

<svg
   xmlns:dc="http://purl.org/dc/elements/1.1/"
   xmlns:cc="http://creativecommons.org/ns#"
   xmlns:rdf="http://www.w3.org/1999/02/22-rdf-syntax-ns#"
   xmlns:svg="http://www.w3.org/2000/svg"
   xmlns="http://www.w3.org/2000/svg"
   version="1.1"
   width="336"
   height="476"
   id="svg6783">
  <defs
     id="defs6785">
    <linearGradient
       x1="268.50681"
       y1="215.15041"
       x2="292.5195"
       y2="215.15041"
       id="SVGID_316_"
       gradientUnits="userSpaceOnUse">
      <stop
         id="stop3557"
         style="stop-color:#a9eff7;stop-opacity:1"
         offset="0.29949999" />
      <stop
         id="stop3559"
         style="stop-color:#fcb4ce;stop-opacity:1"
         offset="0.89999998" />
    </linearGradient>
    <linearGradient
       x1="268.50681"
       y1="215.15041"
       x2="292.5195"
       y2="215.15041"
       id="SVGID_317_"
       gradientUnits="userSpaceOnUse">
      <stop
         id="stop3564"
         style="stop-color:#a9eff7;stop-opacity:1"
         offset="0.29949999" />
      <stop
         id="stop3566"
         style="stop-color:#fcb4ce;stop-opacity:1"
         offset="0.89999998" />
    </linearGradient>
    <linearGradient
       x1="282"
       y1="216"
       x2="289"
       y2="216"
       id="SVGID_318_"
       gradientUnits="userSpaceOnUse">
      <stop
         id="stop3571"
         style="stop-color:#cad8e7;stop-opacity:1"
         offset="0" />
      <stop
         id="stop3573"
         style="stop-color:#ced5e5;stop-opacity:1"
         offset="0.2449" />
      <stop
         id="stop3575"
         style="stop-color:#dccbde;stop-opacity:1"
         offset="0.51340002" />
      <stop
         id="stop3577"
         style="stop-color:#f1bcd3;stop-opacity:1"
         offset="0.792" />
      <stop
         id="stop3579"
         style="stop-color:#fcb4ce;stop-opacity:1"
         offset="0.89999998" />
    </linearGradient>
  </defs>
  <metadata
     id="metadata6788">
    <rdf:RDF>
      <cc:Work
         rdf:about="">
        <dc:format>image/svg+xml</dc:format>
        <dc:type
           rdf:resource="http://purl.org/dc/dcmitype/StillImage" />
        <dc:title></dc:title>
      </cc:Work>
    </rdf:RDF>
  </metadata>
  <g
     transform="translate(0,-576.36218)"
     id="layer1">
    <rect
       width="335.30722"
       height="474.14755"
       x="0.053205032"
       y="577.7851"
       id="rect913"
       style="fill:#ffffff" />
    <g
       transform="matrix(1.9051548,0,0,1.789236,-239.99631,216.35942)"
       id="g1067">
      <rect
         width="176.123"
         height="43.334"
         x="126.5"
         y="248.94501"
         id="rect1069"
         style="fill:none" />
      <text
         transform="translate(162.2568,256.6455)"
         id="text1071"
         style="font-size:11px;fill:#c4c4c4;font-family:Quicksand-Regular">DEUX éMOTIONS ?</text>
    </g>
    <g
       transform="matrix(1.9051548,0,0,1.789236,-239.99631,216.35942)"
       id="g1073">
      <g
         id="g1075"
         style="opacity:0.2">
        <line
           style="fill:none;stroke:#b5b4b5;stroke-miterlimit:10"
           stroke-miterlimit="10"
           x1="169"
           y1="301.5"
           x2="168"
           y2="301.5"
           id="line1077" />
        <line
           style="fill:none;stroke:#b5b4b5;stroke-miterlimit:10;stroke-dasharray:2, 2"
           stroke-miterlimit="10"
           x1="166"
           y1="301.5"
           x2="147"
           y2="301.5"
           id="line1079" />
        <polyline
           style="fill:none;stroke:#b5b4b5;stroke-width:0.25;stroke-miterlimit:10"
           stroke-miterlimit="10"
           points="146.5,301.5 145.5,301.5 145.5,302.5       "
           id="polyline1081" />
        <line
           style="fill:none;stroke:#b5b4b5;stroke-miterlimit:10;stroke-dasharray:2, 2"
           stroke-miterlimit="10"
           x1="145.5"
           y1="304"
           x2="145.5"
           y2="403"
           id="line1083" />
        <polyline
           style="fill:none;stroke:#b5b4b5;stroke-width:0.25;stroke-miterlimit:10"
           stroke-miterlimit="10"
           points="145.5,403.5 145.5,404.5 146.5,404.5       "
           id="polyline1085" />
        <line
           style="fill:none;stroke:#b5b4b5;stroke-miterlimit:10;stroke-dasharray:2, 2"
           stroke-miterlimit="10"
           x1="148"
           y1="404.5"
           x2="150"
           y2="404.5"
           id="line1087" />
        <line
           style="fill:none;stroke:#b5b4b5;stroke-miterlimit:10"
           stroke-miterlimit="10"
           x1="151"
           y1="404.5"
           x2="152"
           y2="404.5"
           id="line1089" />
      </g>
    </g>
    <g
       transform="matrix(1.9051548,0,0,1.789236,-239.99631,216.35942)"
       id="g1091">
      <g
         id="g1093"
         style="opacity:0.2">
        <line
           style="fill:none;stroke:#b5b4b5;stroke-miterlimit:10"
           stroke-miterlimit="10"
           x1="257"
           y1="301.5"
           x2="258"
           y2="301.5"
           id="line1095" />
        <line
           style="fill:none;stroke:#b5b4b5;stroke-miterlimit:10;stroke-dasharray:2, 2"
           stroke-miterlimit="10"
           x1="260"
           y1="301.5"
           x2="279"
           y2="301.5"
           id="line1097" />
        <polyline
           style="fill:none;stroke:#b5b4b5;stroke-width:0.25;stroke-miterlimit:10"
           stroke-miterlimit="10"
           points="280,301.5 281,301.5 281,302.5   "
           id="polyline1099" />
        <line
           style="fill:none;stroke:#b5b4b5;stroke-miterlimit:10;stroke-dasharray:2, 2"
           stroke-miterlimit="10"
           x1="280.5"
           y1="304"
           x2="280.5"
           y2="403"
           id="line1101" />
        <polyline
           style="fill:none;stroke:#b5b4b5;stroke-width:0.25;stroke-miterlimit:10"
           stroke-miterlimit="10"
           points="281,403.5 281,404.5 280,404.5   "
           id="polyline1103" />
        <line
           style="fill:none;stroke:#b5b4b5;stroke-miterlimit:10;stroke-dasharray:2, 2"
           stroke-miterlimit="10"
           x1="278"
           y1="404.5"
           x2="276"
           y2="404.5"
           id="line1105" />
        <line
           style="fill:none;stroke:#b5b4b5;stroke-miterlimit:10"
           stroke-miterlimit="10"
           x1="275"
           y1="404.5"
           x2="274"
           y2="404.5"
           id="line1107" />
      </g>
    </g>
    <g
       transform="matrix(1.9051548,0,0,1.789236,-239.99631,216.35942)"
       id="g1109">
      <g
         id="g1111">
        <rect
           width="29.502001"
           height="20.784"
           x="197.31599"
           y="204.60699"
           id="rect1113"
           style="fill:none" />
        <text
           transform="translate(204.4287,219.4214)"
           id="text1115"
           style="font-size:18.51919937px;fill:#ffffff;font-family:Bold">GT</text>
      </g>
    </g>
    <path
       d="m 188.20629,606.97828 c -1.34123,0 -2.53005,-0.68529 -3.19875,-1.88765 -0.74682,-1.33477 -0.65348,-3.30651 -0.52202,-6.03151 0.17146,-3.65005 0.40961,-8.81199 -1.78132,-10.96444 -0.82493,-0.80695 -2.02328,-1.36519 -3.66742,-1.36519 h -3.70935 v -3.57847 h 3.70935 c 2.94918,0 5.3211,0.61728 7.04717,2.31348 3.57407,3.50691 3.28259,9.46864 3.07301,13.91132 -0.0247,0.55286 -0.0553,1.12543 -0.0724,1.72481 0.13908,-0.35784 0.2553,-0.80873 0.31816,-1.29182 0.37913,-2.79836 1.90516,-3.79855 2.78344,-4.13493 1.15262,-0.44372 2.45192,-0.30775 3.52834,0.37217 0.13527,-0.37753 0.23625,-0.76402 0.28198,-1.1308 l 4.64668,0.52424 c -0.33152,2.55682 -2.26905,6.24086 -4.17803,6.98339 -0.87255,0.33817 -1.82132,0.22187 -2.53765,-0.30955 -0.0781,-0.0555 -0.15623,-0.11807 -0.23244,-0.19143 -0.82112,2.63375 -2.68436,4.63771 -4.80671,4.99554 -0.23242,0.0429 -0.45915,0.0608 -0.68205,0.0608 z"
       id="path1117"
       style="fill:#ffffff" />
    <rect
       width="9.525774"
       height="3.5784719"
       x="139.12947"
       y="597.46674"
       id="rect1119"
       style="fill:#ffffff" />
    <rect
       width="335.30722"
       height="55.46632"
       x="0.053205032"
       y="996.46637"
       id="rect1121"
       style="opacity:0.8;fill:#a9eff7" />
    <circle
       cx="274.827"
       cy="451.22101"
       r="9.5609999"
       transform="matrix(1.9051548,0,0,1.789236,-239.99631,216.35942)"
       id="circle1123"
       style="fill:#ffffff" />
    <circle
       cx="155.145"
       cy="451.22101"
       r="9.5609999"
       transform="matrix(1.9051548,0,0,1.789236,-239.99631,216.35942)"
       id="circle1125"
       style="fill:none;stroke:#ffffff;stroke-width:0.25;stroke-miterlimit:10" />
    <circle
       cx="215.272"
       cy="451.22101"
       r="14.062"
       transform="matrix(1.9051548,0,0,1.789236,-239.99631,216.35942)"
       id="circle1127"
       style="fill:none;stroke:#ffffff;stroke-miterlimit:10" />
    <circle
       cx="180.43201"
       cy="288.03699"
       r="6.4320002"
       transform="matrix(1.9051548,0,0,1.789236,-239.99631,216.35942)"
       id="circle1129"
       style="fill:none;stroke:#d6d6d6;stroke-width:0.25;stroke-miterlimit:10" />
    <circle
       cx="180.431"
       cy="288.03699"
       r="2.434"
       transform="matrix(1.9051548,0,0,1.789236,-239.99631,216.35942)"
       id="circle1131"
       style="fill:#f9f569" />
    <circle
       cx="213.64301"
       cy="288.03699"
       r="6.4330001"
       transform="matrix(1.9051548,0,0,1.789236,-239.99631,216.35942)"
       id="circle1133"
       style="fill:none;stroke:#d6d6d6;stroke-width:0.25;stroke-miterlimit:10" />
    <circle
       cx="213.64301"
       cy="288.03699"
       r="2.4330001"
       transform="matrix(1.9051548,0,0,1.789236,-239.99631,216.35942)"
       id="circle1135"
       style="fill:#fcb4ce" />
    <path
       d="m 242.32794,731.72559 c 0,6.35358 -5.48304,11.50837 -12.25777,11.50837 -6.76901,0 -12.25014,-5.15479 -12.25014,-11.50837 0,-6.35893 5.48113,-11.51193 12.25014,-11.51193 6.77473,0.002 12.25777,5.153 12.25777,11.51193 z"
       id="path1137"
       style="fill:none;stroke:#d6d6d6;stroke-width:0.46157143;stroke-miterlimit:10" />
    <circle
       cx="246.73399"
       cy="288.03699"
       r="2.434"
       transform="matrix(1.9051548,0,0,1.789236,-239.99631,216.35942)"
       id="circle1139"
       style="fill:#f8533d" />
    <circle
       cx="213.64301"
       cy="313.76001"
       r="6.4330001"
       transform="matrix(1.9051548,0,0,1.789236,-239.99631,216.35942)"
       id="circle1141"
       style="fill:none;stroke:#d6d6d6;stroke-width:0.25;stroke-miterlimit:10" />
    <circle
       cx="213.64301"
       cy="313.76001"
       r="2.4330001"
       transform="matrix(1.9051548,0,0,1.789236,-239.99631,216.35942)"
       id="circle1143"
       style="fill:#e6e8e8" />
    <g
       transform="matrix(1.9051548,0,0,1.789236,-239.99631,216.35942)"
       id="g1145">
      <path
         d="m 159.395,450.437 h -3.188 l 1.191,-1.191 c -0.603,-0.603 -1.403,-0.935 -2.255,-0.935 -0.85,0 -1.652,0.332 -2.253,0.935 -0.603,0.602 -0.935,1.402 -0.935,2.255 0,0.851 0.332,1.651 0.935,2.253 0.601,0.603 1.403,0.935 2.253,0.935 0.852,0 1.652,-0.332 2.255,-0.935 0.049,-0.05 0.099,-0.103 0.146,-0.155 l 0.799,0.7 c -0.779,0.89 -1.925,1.452 -3.199,1.452 -2.348,0 -4.25,-1.903 -4.25,-4.25 0,-2.35 1.902,-4.251 4.25,-4.251 1.174,0 2.237,0.476 3.006,1.244 l 1.245,-1.244 v 3.187 z"
         id="path1147"
         style="fill:#ffffff" />
    </g>
    <path
       d="m 118.80532,1051.929 c -4.99341,-8.0783 -7.85114,-17.4647 -7.85114,-27.4755 0,-9.855 2.76817,-19.1018 7.613,-27.09255"
       id="path1149"
       style="opacity:0.3;fill:none;stroke:#ffffff;stroke-width:1.8462857;stroke-miterlimit:10" />
    <path
       d="m 220.56726,998.15358 c 4.55141,7.80642 7.13861,16.76872 7.13861,26.29812 0.002,10.0179 -2.85964,19.4079 -7.85686,27.4862"
       id="path1151"
       style="opacity:0.3;fill:none;stroke:#ffffff;stroke-width:1.8462857;stroke-miterlimit:10" />
    <path
       d="m 145.4127,1051.9397 c -8.26645,-6.69 -13.50181,-16.5951 -13.50181,-27.6508 0,-10.2202 4.47329,-19.4579 11.68431,-26.08164"
       id="path1153"
       style="opacity:0.6;fill:none;stroke:#ffffff;stroke-width:1.8462857;stroke-miterlimit:10" />
    <path
       d="m 197.72255,998.02118 c 7.32913,6.63622 11.88436,15.95102 11.88436,26.26772 0,11.0557 -5.23347,20.9608 -13.50184,27.6508"
       id="path1155"
       style="opacity:0.6;fill:none;stroke:#ffffff;stroke-width:1.8462857;stroke-miterlimit:10" />
    <g
       transform="matrix(1.9051548,0,0,1.789236,-239.99631,216.35942)"
       id="g1157">
      <line
         style="fill:none;stroke:#ffffff;stroke-miterlimit:10"
         stroke-miterlimit="10"
         x1="222.623"
         y1="446.552"
         x2="213.42599"
         y2="455.89099"
         id="line1159" />
      <line
         style="fill:none;stroke:#ffffff;stroke-miterlimit:10"
         stroke-miterlimit="10"
         x1="208.58099"
         y1="450.496"
         x2="214.062"
         y2="455.89099"
         id="line1161" />
    </g>
    <g
       transform="matrix(1.9051548,0,0,1.789236,-239.99631,216.35942)"
       id="g1163"
       style="opacity:0.8">
      <line
         style="fill:none;stroke:#a9eff7;stroke-miterlimit:10"
         stroke-miterlimit="10"
         x1="274.827"
         y1="446.134"
         x2="274.827"
         y2="456.30899"
         id="line1165" />
      <line
         style="fill:none;stroke:#a9eff7;stroke-miterlimit:10"
         stroke-miterlimit="10"
         x1="269.741"
         y1="451.22198"
         x2="279.91299"
         y2="451.22198"
         id="line1167" />
    </g>
    <rect
       width="333.4021"
       height="184.29132"
       x="1.0057844"
       y="813.0697"
       id="rect3422"
       style="fill:#ffffff;stroke:#a9eff7;stroke-width:1.8462857;stroke-miterlimit:10" />
    <rect
       width="336.49411"
       height="77.53476"
       x="0.053205032"
       y="828.2298"
       id="rect3424"
       style="fill:none" />
    <text
       x="58.905613"
       y="868.85419"
       transform="scale(1.031885,0.96910027)"
       id="text3426"
       style="font-size:20.30914497px;opacity:0.8;fill:#a9eff7;font-family:Quicksand-Regular">PERSONNALISATION</text>
    <g
       transform="matrix(1.9051548,0,0,1.789236,-239.99631,216.35942)"
       id="g3428">
      <rect
         width="100.818"
         height="9.4619999"
         x="126"
         y="366.03799"
         id="rect3430"
         style="fill:none" />
      <text
         transform="translate(157.5283,372.3379)"
         id="text3432"
         style="font-size:9px;fill:#c4c4c4;font-family:Quicksand-Regular">refrain ?</text>
    </g>
    <g
       transform="matrix(1.9051548,0,0,1.789236,-239.99631,216.35942)"
       id="g3434">
      <rect
         width="100.818"
         height="8.9099998"
         x="126"
         y="389.36801"
         id="rect3436"
         style="fill:none" />
      <text
         transform="translate(151.0703,395.668)"
         id="text3438"
         style="font-size:9px;fill:#c4c4c4;font-family:Quicksand-Regular">mots-clés ?</text>
    </g>
    <g
       transform="matrix(1.9051548,0,0,1.789236,-239.99631,216.35942)"
       id="g3440">
      <rect
         width="100.818"
         height="10.252"
         x="126"
         y="409.74799"
         id="rect3442"
         style="fill:none" />
      <text
         transform="translate(155.1201,416.0479)"
         id="text3444"
         style="font-size:9px;fill:#c4c4c4;font-family:Quicksand-Regular">prénom ?</text>
    </g>
    <path
       d="m 309.64085,959.55618 c 0,6.05657 -6.55943,10.96622 -13.64089,10.96622 H 181.4811 c -7.08146,0 -12.82171,-4.90965 -12.82171,-10.96622 v -1.32762 c 0,-6.05656 5.74216,-10.96622 12.82171,-10.96622 h 114.51695 c 7.08147,0 13.64091,4.90966 13.64091,10.96622 v 1.32762 z"
       id="path3446"
       style="fill:none;stroke:#a9eff7;stroke-width:1.8462857;stroke-miterlimit:10" />
    <circle
       cx="237.08299"
       cy="370.18201"
       r="8.3109999"
       transform="matrix(1.9051548,0,0,1.789236,-239.99631,216.35942)"
       id="circle3448"
       style="fill:#ffffff;stroke:#a9eff7;stroke-width:0.5;stroke-miterlimit:10" />
    <circle
       cx="268.814"
       cy="370.18201"
       r="8.3109999"
       transform="matrix(1.9051548,0,0,1.789236,-239.99631,216.35942)"
       id="circle3450"
       style="fill:#ffffff;stroke:#a9eff7;stroke-width:0.5;stroke-miterlimit:10" />
    <g
       transform="matrix(1.9051548,0,0,1.789236,-239.99631,216.35942)"
       id="g3452">
      <line
         style="fill:#ffffff;stroke:#a9eff7;stroke-miterlimit:10"
         stroke-miterlimit="10"
         x1="241.918"
         y1="367.63599"
         x2="236.26801"
         y2="373.37201"
         id="line3454" />
      <line
         style="fill:#ffffff;stroke:#a9eff7;stroke-miterlimit:10"
         stroke-miterlimit="10"
         x1="233.291"
         y1="370.05899"
         x2="236.659"
         y2="373.37201"
         id="line3456" />
    </g>
    <g
       transform="matrix(1.9051548,0,0,1.789236,-239.99631,216.35942)"
       id="g3458"
       style="opacity:0.8">
      <line
         style="fill:none;stroke:#a9eff7;stroke-miterlimit:10"
         stroke-miterlimit="10"
         x1="265.60901"
         y1="367.13501"
         x2="272.01999"
         y2="373.229"
         id="line3460" />
      <line
         style="fill:none;stroke:#a9eff7;stroke-miterlimit:10"
         stroke-miterlimit="10"
         x1="265.76901"
         y1="373.38699"
         x2="271.86099"
         y2="366.979"
         id="line3462" />
    </g>
    <path
       d="m 311.54601,920.19298 c 0,6.05657 -6.55943,10.96624 -13.6409,10.96624 H 183.38625 c -7.08145,0 -12.8217,-4.90967 -12.8217,-10.96624 v -1.32761 c 0,-6.05655 5.74215,-10.96623 12.8217,-10.96623 H 297.9032 c 7.08146,0 13.64092,4.90968 13.64092,10.96623 v 1.32761 z"
       id="path3464"
       style="fill:none;stroke:#a9eff7;stroke-width:1.8462857;stroke-miterlimit:10" />
    <g
       transform="matrix(1.9051548,0,0,1.789236,-239.99631,216.35942)"
       id="g3550">
      <g
         id="g3552">
        <g
           id="g3554">
          <linearGradient
             x1="268.50681"
             y1="215.15041"
             x2="292.5195"
             y2="215.15041"
             id="linearGradient6752"
             gradientUnits="userSpaceOnUse">
            <stop
               id="stop6754"
               style="stop-color:#a9eff7;stop-opacity:1"
               offset="0.29949999" />
            <stop
               id="stop6756"
               style="stop-color:#fcb4ce;stop-opacity:1"
               offset="0.89999998" />
          </linearGradient>
          <path
             d="m 277.111,214.839 h 6.304 v 0.504 c 0,1.146 -0.135,2.16 -0.405,3.043 -0.264,0.817 -0.708,1.581 -1.333,2.292 -1.417,1.594 -3.218,2.391 -5.404,2.391 -2.135,0 -3.962,-0.771 -5.483,-2.312 -1.521,-1.548 -2.282,-3.405 -2.282,-5.572 0,-2.213 0.773,-4.09 2.321,-5.631 1.548,-1.548 3.432,-2.322 5.651,-2.322 1.192,0 2.306,0.243 3.34,0.728 0.987,0.485 1.959,1.274 2.914,2.365 l -1.64,1.571 c -1.252,-1.666 -2.776,-2.5 -4.575,-2.5 -1.613,0 -2.967,0.557 -4.061,1.67 -1.093,1.093 -1.64,2.463 -1.64,4.11 0,1.699 0.609,3.099 1.828,4.199 1.139,1.021 2.374,1.532 3.704,1.532 1.133,0 2.15,-0.381 3.054,-1.144 0.902,-0.769 1.406,-1.688 1.511,-2.759 h -3.804 v -2.165 z"
             id="path3561"
             style="fill:url(#SVGID_316_)" />
          <linearGradient
             x1="268.50681"
             y1="215.15041"
             x2="292.5195"
             y2="215.15041"
             id="linearGradient6759"
             gradientUnits="userSpaceOnUse">
            <stop
               id="stop6761"
               style="stop-color:#a9eff7;stop-opacity:1"
               offset="0.29949999" />
            <stop
               id="stop6763"
               style="stop-color:#fcb4ce;stop-opacity:1"
               offset="0.89999998" />
          </linearGradient>
          <path
             d="m 289.021,209.692 v 13.091 h -2.302 v -13.091 h -3.507 v -2.164 h 9.307 v 2.164 h -3.498 z"
             id="path3568"
             style="fill:url(#SVGID_317_)" />
        </g>
      </g>
      <linearGradient
         x1="282"
         y1="216"
         x2="289"
         y2="216"
         id="linearGradient6766"
         gradientUnits="userSpaceOnUse">
        <stop
           id="stop6768"
           style="stop-color:#cad8e7;stop-opacity:1"
           offset="0" />
        <stop
           id="stop6770"
           style="stop-color:#ced5e5;stop-opacity:1"
           offset="0.2449" />
        <stop
           id="stop6772"
           style="stop-color:#dccbde;stop-opacity:1"
           offset="0.51340002" />
        <stop
           id="stop6774"
           style="stop-color:#f1bcd3;stop-opacity:1"
           offset="0.792" />
        <stop
           id="stop6776"
           style="stop-color:#fcb4ce;stop-opacity:1"
           offset="0.89999998" />
      </linearGradient>
      <rect
         width="7"
         height="2"
         x="282"
         y="215"
         id="rect3581"
         style="fill:url(#SVGID_318_)" />
      <rect
         width="4"
         height="3"
         x="265"
         y="214"
         id="rect3583"
         style="fill:#a9eff7" />
    </g>
    <line
       style="opacity:0.8;fill:none;stroke:#a9eff7;stroke-width:1.8462857;stroke-miterlimit:10"
       stroke-miterlimit="10"
       x1="9.5789804"
       y1="589.41522"
       x2="49.587234"
       y2="589.41522"
       id="line3661" />
    <line
       style="opacity:0.8;fill:none;stroke:#a9eff7;stroke-width:1.8462857;stroke-miterlimit:10"
       stroke-miterlimit="10"
       x1="9.5789804"
       y1="600.15057"
       x2="49.587234"
       y2="600.15057"
       id="line3663" />
    <line
       style="opacity:0.8;fill:none;stroke:#a9eff7;stroke-width:1.8462857;stroke-miterlimit:10"
       stroke-miterlimit="10"
       x1="9.5789804"
       y1="610.88599"
       x2="49.587234"
       y2="610.88599"
       id="line3665" />
  </g>
</svg>
