<?xml version="1.0" encoding="UTF-8" standalone="no"?>
<!-- Created with Inkscape (http://www.inkscape.org/) -->

<svg
   xmlns:dc="http://purl.org/dc/elements/1.1/"
   xmlns:cc="http://creativecommons.org/ns#"
   xmlns:rdf="http://www.w3.org/1999/02/22-rdf-syntax-ns#"
   xmlns:svg="http://www.w3.org/2000/svg"
   xmlns="http://www.w3.org/2000/svg"
   xmlns:sodipodi="http://sodipodi.sourceforge.net/DTD/sodipodi-0.dtd"
   xmlns:inkscape="http://www.inkscape.org/namespaces/inkscape"
   width="336"
   height="476"
   id="svg8898"
   version="1.1"
   inkscape:version="0.48.2 r9819"
   sodipodi:docname="page2.svg">
  <defs
     id="defs8900">
    <linearGradient
       gradientTransform="matrix(1,0,0,0.97865245,8.1663307,470.64946)"
       id="SVGID_323_"
       gradientUnits="userSpaceOnUse"
       x1="120.9902"
       y1="413.47559"
       x2="220.1377"
       y2="413.47559">
      <stop
         offset="0.2995"
         style="stop-color:#A9EFF7"
         id="stop5436" />
      <stop
         offset="0.9"
         style="stop-color:#FCB4CE"
         id="stop5438" />
    </linearGradient>
    <linearGradient
       id="SVGID_320_"
       gradientUnits="userSpaceOnUse"
       x1="133.8633"
       y1="322.8613"
       x2="218.0625"
       y2="322.8613">
      <stop
         offset="0.2995"
         style="stop-color:#A9EFF7"
         id="stop5407" />
      <stop
         offset="0.9"
         style="stop-color:#FCB4CE"
         id="stop5409" />
    </linearGradient>
    <linearGradient
       id="SVGID_321_"
       gradientUnits="userSpaceOnUse"
       x1="133.8633"
       y1="322.8613"
       x2="218.0625"
       y2="322.8613">
      <stop
         offset="0.2995"
         style="stop-color:#A9EFF7"
         id="stop5414" />
      <stop
         offset="0.9"
         style="stop-color:#FCB4CE"
         id="stop5416" />
    </linearGradient>
    <linearGradient
       id="SVGID_322_"
       gradientUnits="userSpaceOnUse"
       x1="182"
       y1="325.5"
       x2="205"
       y2="325.5">
      <stop
         offset="0"
         style="stop-color:#CAD8E7"
         id="stop5421" />
      <stop
         offset="0.2449"
         style="stop-color:#CED5E5"
         id="stop5423" />
      <stop
         offset="0.5134"
         style="stop-color:#DCCBDE"
         id="stop5425" />
      <stop
         offset="0.792"
         style="stop-color:#F1BCD3"
         id="stop5427" />
      <stop
         offset="0.9"
         style="stop-color:#FCB4CE"
         id="stop5429" />
    </linearGradient>
    <linearGradient
       id="SVGID_324_"
       gradientUnits="userSpaceOnUse"
       x1="459.50681"
       y1="229.15041"
       x2="483.5195"
       y2="229.15041">
      <stop
         offset="0.2995"
         style="stop-color:#A9EFF7"
         id="stop5449" />
      <stop
         offset="0.9"
         style="stop-color:#FCB4CE"
         id="stop5451" />
    </linearGradient>
    <linearGradient
       id="SVGID_325_"
       gradientUnits="userSpaceOnUse"
       x1="459.50681"
       y1="229.15041"
       x2="483.5195"
       y2="229.15041">
      <stop
         offset="0.2995"
         style="stop-color:#A9EFF7"
         id="stop5456" />
      <stop
         offset="0.9"
         style="stop-color:#FCB4CE"
         id="stop5458" />
    </linearGradient>
    <linearGradient
       id="SVGID_326_"
       gradientUnits="userSpaceOnUse"
       x1="473"
       y1="230"
       x2="480"
       y2="230">
      <stop
         offset="0"
         style="stop-color:#CAD8E7"
         id="stop5463" />
      <stop
         offset="0.2449"
         style="stop-color:#CED5E5"
         id="stop5465" />
      <stop
         offset="0.5134"
         style="stop-color:#DCCBDE"
         id="stop5467" />
      <stop
         offset="0.792"
         style="stop-color:#F1BCD3"
         id="stop5469" />
      <stop
         offset="0.9"
         style="stop-color:#FCB4CE"
         id="stop5471" />
    </linearGradient>
  </defs>
  <sodipodi:namedview
     id="base"
     pagecolor="#ffffff"
     bordercolor="#666666"
     borderopacity="1.0"
     inkscape:pageopacity="0.0"
     inkscape:pageshadow="2"
     inkscape:zoom="1.0091604"
     inkscape:cx="138.07779"
     inkscape:cy="213.66676"
     inkscape:document-units="px"
     inkscape:current-layer="layer1"
     showgrid="false"
     inkscape:window-width="1366"
     inkscape:window-height="739"
     inkscape:window-x="-9"
     inkscape:window-y="-9"
     inkscape:window-maximized="1" />
  <metadata
     id="metadata8903">
    <rdf:RDF>
      <cc:Work
         rdf:about="">
        <dc:format>image/svg+xml</dc:format>
        <dc:type
           rdf:resource="http://purl.org/dc/dcmitype/StillImage" />
        <dc:title></dc:title>
      </cc:Work>
    </rdf:RDF>
  </metadata>
  <g
     inkscape:label="Calque 1"
     inkscape:groupmode="layer"
     id="layer1"
     transform="translate(0,-576.36217)">
    <rect
       style="fill:#ffffff"
       x="-0.16719685"
       y="787.44122"
       width="176"
       height="265"
       id="rect2077" />
    <path
       style="fill:#f4f4f4;stroke:#d6d6d6;stroke-width:0.49524078;stroke-miterlimit:10"
       inkscape:connector-curvature="0"
       stroke-miterlimit="10"
       d="m 229.39054,1015.6037 c 0,7.1086 -4.39407,12.8749 -9.81959,12.8749 H 50.405513 c -5.42552,0 -9.823046,-5.7663 -9.823046,-12.8749 l 0,0 c 0,-7.1086 4.397526,-12.8704 9.823046,-12.8704 H 219.57095 c 5.42552,0 9.81959,5.7618 9.81959,12.8704 l 0,0 z"
       id="path2087" />
    <path
       style="fill:#ffffff;stroke:#d6d6d6;stroke-width:0.49524078;stroke-miterlimit:10"
       inkscape:connector-curvature="0"
       stroke-miterlimit="10"
       d="m 60.773706,1015.962 c 0,7.3082 -4.51694,13.2286 -10.098215,13.2286 -5.570892,0 -10.093024,-5.9204 -10.093024,-13.2286 0,-7.3037 4.522132,-13.2287 10.093024,-13.2287 5.581275,0 10.098215,5.925 10.098215,13.2287 z"
       id="path2089" />
    <circle
       transform="matrix(1.7306281,0,0,2.2675091,-678.40872,76.941098)"
       style="fill:#ffffff;stroke:#d6d6d6;stroke-width:0.25;stroke-miterlimit:10"
       sodipodi:ry="5.8319998"
       sodipodi:rx="5.8319998"
       sodipodi:cy="414.12"
       sodipodi:cx="518.71698"
       stroke-miterlimit="10"
       cx="518.71698"
       cy="414.12"
       r="5.8319998"
       id="circle2091"
       d="m 524.54898,414.12 c 0,3.22092 -2.61108,5.83199 -5.832,5.83199 -3.22092,0 -5.832,-2.61107 -5.832,-5.83199 0,-3.22093 2.61108,-5.832 5.832,-5.832 3.22092,0 5.832,2.61107 5.832,5.832 z" />
    <rect
       style="fill:#ffffff;stroke:#d6d6d6;stroke-width:0.49524078;stroke-miterlimit:10"
       x="132.73499"
       y="996.77655"
       stroke-miterlimit="10"
       width="2.9109166"
       height="39.087322"
       id="rect2093" />
    <circle
       transform="matrix(1.7306281,0,0,2.2675091,-678.40872,76.941098)"
       style="fill:none;stroke:#d6d6d6;stroke-width:0.25;stroke-miterlimit:10"
       sodipodi:ry="6.4320002"
       sodipodi:rx="6.4320002"
       sodipodi:cy="301.03699"
       sodipodi:cx="437.496"
       stroke-miterlimit="10"
       cx="437.496"
       cy="301.03699"
       r="6.4320002"
       id="circle2095"
       d="m 443.928,301.03699 c 0,3.55229 -2.8797,6.432 -6.432,6.432 -3.55229,0 -6.432,-2.87971 -6.432,-6.432 0,-3.5523 2.87971,-6.432 6.432,-6.432 3.5523,0 6.432,2.8797 6.432,6.432 z" />
    <circle
       transform="matrix(1.7306281,0,0,2.2675091,-678.40872,76.941098)"
       style="fill:#f9f569"
       sodipodi:ry="2.434"
       sodipodi:rx="2.434"
       sodipodi:cy="301.03699"
       sodipodi:cx="437.49399"
       cx="437.49399"
       cy="301.03699"
       r="2.434"
       id="circle2097"
       d="m 439.92799,301.03699 c 0,1.34426 -1.08974,2.434 -2.434,2.434 -1.34426,0 -2.434,-1.08974 -2.434,-2.434 0,-1.34426 1.08974,-2.434 2.434,-2.434 1.34426,0 2.434,1.08974 2.434,2.434 z" />
    <circle
       transform="matrix(1.7306281,0,0,2.2675091,-678.40872,76.941098)"
       style="fill:none;stroke:#d6d6d6;stroke-width:0.25;stroke-miterlimit:10"
       sodipodi:ry="6.4330001"
       sodipodi:rx="6.4330001"
       sodipodi:cy="301.03699"
       sodipodi:cx="470.70599"
       stroke-miterlimit="10"
       cx="470.70599"
       cy="301.03699"
       r="6.4330001"
       id="circle2099"
       d="m 477.13899,301.03699 c 0,3.55285 -2.88015,6.433 -6.433,6.433 -3.55284,0 -6.433,-2.88015 -6.433,-6.433 0,-3.55285 2.88016,-6.433 6.433,-6.433 3.55285,0 6.433,2.88015 6.433,6.433 z" />
    <circle
       transform="matrix(1.7306281,0,0,2.2675091,-678.40872,76.941098)"
       style="fill:#fcb4ce"
       sodipodi:ry="2.4330001"
       sodipodi:rx="2.4330001"
       sodipodi:cy="301.03699"
       sodipodi:cx="470.707"
       cx="470.707"
       cy="301.03699"
       r="2.4330001"
       id="circle2101"
       d="m 473.14,301.03699 c 0,1.34371 -1.08929,2.433 -2.433,2.433 -1.34371,0 -2.433,-1.08929 -2.433,-2.433 0,-1.34371 1.08929,-2.433 2.433,-2.433 1.34371,0 2.433,1.08929 2.433,2.433 z" />
    <circle
       transform="matrix(1.7306281,0,0,2.2675091,-678.40872,76.941098)"
       style="fill:none;stroke:#d6d6d6;stroke-width:0.25;stroke-miterlimit:10"
       sodipodi:ry="6.4320002"
       sodipodi:rx="6.4320002"
       sodipodi:cy="301.03699"
       sodipodi:cx="503.79901"
       stroke-miterlimit="10"
       cx="503.79901"
       cy="301.03699"
       r="6.4320002"
       id="circle2103"
       d="m 510.23101,301.03699 c 0,3.55229 -2.8797,6.432 -6.432,6.432 -3.55229,0 -6.432,-2.87971 -6.432,-6.432 0,-3.5523 2.87971,-6.432 6.432,-6.432 3.5523,0 6.432,2.8797 6.432,6.432 z" />
    <circle
       transform="matrix(1.7306281,0,0,2.2675091,-678.40872,76.941098)"
       style="fill:#f8533d"
       sodipodi:ry="2.434"
       sodipodi:rx="2.434"
       sodipodi:cy="301.03699"
       sodipodi:cx="503.79901"
       cx="503.79901"
       cy="301.03699"
       r="2.434"
       id="circle2105"
       d="m 506.23301,301.03699 c 0,1.34426 -1.08974,2.434 -2.434,2.434 -1.34426,0 -2.434,-1.08974 -2.434,-2.434 0,-1.34426 1.08974,-2.434 2.434,-2.434 1.34426,0 2.434,1.08974 2.434,2.434 z" />
    <circle
       transform="matrix(1.7306281,0,0,2.2675091,-678.40872,76.941098)"
       style="fill:none;stroke:#d6d6d6;stroke-width:0.25;stroke-miterlimit:10"
       sodipodi:ry="6.4320002"
       sodipodi:rx="6.4320002"
       sodipodi:cy="326.759"
       sodipodi:cx="437.496"
       stroke-miterlimit="10"
       cx="437.496"
       cy="326.759"
       r="6.4320002"
       id="circle2107"
       d="m 443.928,326.759 c 0,3.5523 -2.8797,6.432 -6.432,6.432 -3.55229,0 -6.432,-2.8797 -6.432,-6.432 0,-3.55229 2.87971,-6.432 6.432,-6.432 3.5523,0 6.432,2.87971 6.432,6.432 z" />
    <circle
       transform="matrix(1.7306281,0,0,2.2675091,-678.40872,76.941098)"
       style="fill:#e7c5ea"
       sodipodi:ry="2.434"
       sodipodi:rx="2.434"
       sodipodi:cy="326.759"
       sodipodi:cx="437.49399"
       cx="437.49399"
       cy="326.759"
       r="2.434"
       id="circle2109"
       d="m 439.92799,326.759 c 0,1.34426 -1.08974,2.434 -2.434,2.434 -1.34426,0 -2.434,-1.08974 -2.434,-2.434 0,-1.34426 1.08974,-2.434 2.434,-2.434 1.34426,0 2.434,1.08974 2.434,2.434 z" />
    <circle
       transform="matrix(1.7306281,0,0,2.2675091,-678.40872,76.941098)"
       style="fill:none;stroke:#d6d6d6;stroke-width:0.25;stroke-miterlimit:10"
       sodipodi:ry="6.4330001"
       sodipodi:rx="6.4330001"
       sodipodi:cy="326.759"
       sodipodi:cx="470.70599"
       stroke-miterlimit="10"
       cx="470.70599"
       cy="326.759"
       r="6.4330001"
       id="circle2111"
       d="m 477.13899,326.759 c 0,3.55285 -2.88015,6.433 -6.433,6.433 -3.55284,0 -6.433,-2.88015 -6.433,-6.433 0,-3.55285 2.88016,-6.433 6.433,-6.433 3.55285,0 6.433,2.88015 6.433,6.433 z" />
    <circle
       transform="matrix(1.7306281,0,0,2.2675091,-678.40872,76.941098)"
       style="fill:#e6e8e8"
       sodipodi:ry="2.4330001"
       sodipodi:rx="2.4330001"
       sodipodi:cy="326.759"
       sodipodi:cx="470.707"
       cx="470.707"
       cy="326.759"
       r="2.4330001"
       id="circle2113"
       d="m 473.14,326.759 c 0,1.34371 -1.08929,2.433 -2.433,2.433 -1.34371,0 -2.433,-1.08929 -2.433,-2.433 0,-1.34371 1.08929,-2.433 2.433,-2.433 1.34371,0 2.433,1.08929 2.433,2.433 z" />
    <circle
       transform="matrix(1.7306281,0,0,2.2675091,-678.40872,76.941098)"
       style="fill:none;stroke:#d6d6d6;stroke-width:0.25;stroke-miterlimit:10"
       sodipodi:ry="6.4320002"
       sodipodi:rx="6.4320002"
       sodipodi:cy="326.759"
       sodipodi:cx="503.79901"
       stroke-miterlimit="10"
       cx="503.79901"
       cy="326.759"
       r="6.4320002"
       id="circle2115"
       d="m 510.23101,326.759 c 0,3.5523 -2.8797,6.432 -6.432,6.432 -3.55229,0 -6.432,-2.8797 -6.432,-6.432 0,-3.55229 2.87971,-6.432 6.432,-6.432 3.5523,0 6.432,2.87971 6.432,6.432 z" />
    <circle
       transform="matrix(1.7306281,0,0,2.2675091,-678.40872,76.941098)"
       style="fill:#a9eff7"
       sodipodi:ry="2.434"
       sodipodi:rx="2.434"
       sodipodi:cy="326.759"
       sodipodi:cx="503.79901"
       cx="503.79901"
       cy="326.759"
       r="2.434"
       id="circle2117"
       d="m 506.23301,326.759 c 0,1.34426 -1.08974,2.434 -2.434,2.434 -1.34426,0 -2.434,-1.08974 -2.434,-2.434 0,-1.34426 1.08974,-2.434 2.434,-2.434 1.34426,0 2.434,1.08974 2.434,2.434 z" />
    <g
       transform="matrix(1.7306281,0,0,2.2675091,-678.40872,76.941098)"
       id="g2119">
      <rect
         style="fill:none"
         x="415.707"
         y="340.66299"
         width="56.648998"
         height="4.9879999"
         id="rect2121" />
      <text
         transform="translate(415.707,345.562)"
         id="text2123">
        <tspan
           style="font-size:7px;fill:#e7c5ea;font-family:Quicksand-Regular"
           x="0"
           y="0"
           font-size="7"
           id="tspan2125">mélanco</tspan>
        <tspan
           style="font-size:7px;fill:#e7c5ea;font-family:Quicksand-Regular"
           x="35.264999"
           y="0"
           font-size="7"
           id="tspan2127">-</tspan>
      </text>
    </g>
    <line
       style="fill:none;stroke:#e7c5ea;stroke-width:1.48572242;stroke-miterlimit:10"
       stroke-miterlimit="10"
       x1="78.734169"
       y1="821.59332"
       x2="78.734169"
       y2="844.49292"
       id="line2129" />
    <rect
       style="fill:none"
       x="19.651258"
       y="767.00348"
       width="175.5"
       height="18.864"
       id="rect4396" />
    <text
       y="601.37579"
       x="52.384308"
       style="font-size:21.7905941px;fill:#c4c4c4;font-family:Quicksand-Regular"
       font-size="11"
       id="text4398"
       transform="scale(0.87362964,1.1446498)">DEUX éMOTIONS ?</text>
    <g
       transform="matrix(1.7306281,0,0,2.2675091,-642.39542,-71.356038)"
       id="g4412">
      <rect
         style="fill:none"
         x="382.272"
         y="362.64001"
         width="176.396"
         height="11.333"
         id="rect4414" />
      <text
         style="font-size:11px;fill:#c4c4c4;font-family:Quicksand-Regular"
         transform="translate(436.7285,370.3398)"
         font-size="11"
         id="text4416">Intensité ?</text>
    </g>
    <line
       style="fill:#f4f4f4;stroke:#b5b4b5;stroke-width:0.49524078;stroke-miterlimit:10"
       stroke-miterlimit="10"
       x1="55.377594"
       y1="973.74091"
       x2="214.59538"
       y2="973.74091"
       id="line4418" />
    <rect
       style="opacity:0.8;fill:#a9eff7"
       x="20.435152"
       y="946.75543"
       width="304.59055"
       height="70.292786"
       id="rect5056" />
    <circle
       transform="translate(-389.5,357.41096)"
       style="fill:none;stroke:#ffffff;stroke-width:0.25;stroke-miterlimit:10"
       sodipodi:ry="9.5609999"
       sodipodi:rx="9.5609999"
       sodipodi:cy="464.22101"
       sodipodi:cx="531.82703"
       stroke-miterlimit="10"
       cx="531.82703"
       cy="464.22101"
       r="9.5609999"
       id="circle5058"
       d="m 541.38803,464.22101 c 0,5.28039 -4.28061,9.561 -9.561,9.561 -5.2804,0 -9.561,-4.28061 -9.561,-9.561 0,-5.2804 4.2806,-9.561 9.561,-9.561 5.28039,0 9.561,4.2806 9.561,9.561 z" />
    <circle
       transform="translate(-389.5,357.41096)"
       style="fill:none;stroke:#ffffff;stroke-width:0.25;stroke-miterlimit:10"
       sodipodi:ry="9.5609999"
       sodipodi:rx="9.5609999"
       sodipodi:cy="464.22101"
       sodipodi:cx="412.14401"
       stroke-miterlimit="10"
       cx="412.14401"
       cy="464.22101"
       r="9.5609999"
       id="circle5060"
       d="m 421.70501,464.22101 c 0,5.28039 -4.2806,9.561 -9.561,9.561 -5.28039,0 -9.561,-4.28061 -9.561,-9.561 0,-5.2804 4.28061,-9.561 9.561,-9.561 5.2804,0 9.561,4.2806 9.561,9.561 z" />
    <circle
       transform="translate(-389.5,357.41096)"
       style="fill:none;stroke:#ffffff;stroke-miterlimit:10"
       sodipodi:ry="14.062"
       sodipodi:rx="14.062"
       sodipodi:cy="464.22101"
       sodipodi:cx="472.272"
       stroke-miterlimit="10"
       cx="472.272"
       cy="464.22101"
       r="14.062"
       id="circle5062"
       d="m 486.334,464.22101 c 0,7.76623 -6.29577,14.062 -14.062,14.062 -7.76623,0 -14.062,-6.29577 -14.062,-14.062 0,-7.76623 6.29577,-14.062 14.062,-14.062 7.76623,0 14.062,6.29577 14.062,14.062 z" />
    <g
       transform="translate(-389.5,357.41096)"
       id="g5064">
      <line
         style="fill:none;stroke:#ffffff;stroke-miterlimit:10"
         stroke-miterlimit="10"
         x1="531.82703"
         y1="459.134"
         x2="531.82703"
         y2="469.30899"
         id="line5066" />
      <line
         style="fill:none;stroke:#ffffff;stroke-miterlimit:10"
         stroke-miterlimit="10"
         x1="526.74103"
         y1="464.22198"
         x2="536.91302"
         y2="464.22198"
         id="line5068" />
    </g>
    <g
       transform="translate(-389.5,357.41096)"
       id="g5070">
      <path
         style="fill:#ffffff"
         inkscape:connector-curvature="0"
         d="m 416.395,463.437 h -3.188 l 1.191,-1.191 c -0.603,-0.603 -1.403,-0.935 -2.255,-0.935 -0.85,0 -1.652,0.332 -2.253,0.935 -0.603,0.602 -0.935,1.402 -0.935,2.255 0,0.851 0.332,1.651 0.935,2.253 0.601,0.603 1.403,0.935 2.253,0.935 0.852,0 1.652,-0.332 2.255,-0.935 0.049,-0.05 0.099,-0.103 0.146,-0.155 l 0.799,0.7 c -0.779,0.89 -1.925,1.452 -3.199,1.452 -2.348,0 -4.25,-1.903 -4.25,-4.25 0,-2.35 1.902,-4.251 4.25,-4.251 1.174,0 2.237,0.476 3.006,1.244 l 1.245,-1.244 v 3.187 z"
         id="path5072" />
    </g>
    <path
       style="opacity:0.3;fill:none;stroke:#ffffff;stroke-miterlimit:10"
       inkscape:connector-curvature="0"
       stroke-miterlimit="10"
       d="m 55.833998,837.4149 c -2.622,-4.517 -4.123,-9.764 -4.123,-15.362 0,-5.715 1.564,-11.063 4.288,-15.643"
       id="path5074" />
    <path
       style="opacity:0.3;fill:none;stroke:#ffffff;stroke-miterlimit:10"
       inkscape:connector-curvature="0"
       stroke-miterlimit="10"
       d="m 108.705,806.4109 c 2.724,4.578 4.288,9.928 4.288,15.642 0,5.597 -1.501,10.844 -4.122,15.359"
       id="path5076" />
    <path
       style="opacity:0.6;fill:none;stroke:#ffffff;stroke-miterlimit:10"
       inkscape:connector-curvature="0"
       stroke-miterlimit="10"
       d="m 69.798998,837.4149 c -4.34,-3.739 -7.088,-9.275 -7.088,-15.454 0,-6.233 2.797,-11.812 7.204,-15.553"
       id="path5078" />
    <path
       style="opacity:0.6;fill:none;stroke:#ffffff;stroke-miterlimit:10"
       inkscape:connector-curvature="0"
       stroke-miterlimit="10"
       d="m 96.291,806.4079 c 4.406,3.74 7.202,9.319 7.202,15.553 0,6.179 -2.747,11.715 -7.087,15.454"
       id="path5080" />
    <g
       transform="translate(-389.5,357.41096)"
       id="g5082">
      <line
         style="fill:none;stroke:#ffffff;stroke-miterlimit:10"
         stroke-miterlimit="10"
         x1="479.62299"
         y1="459.552"
         x2="470.42599"
         y2="468.89099"
         id="line5084" />
      <line
         style="fill:none;stroke:#ffffff;stroke-miterlimit:10"
         stroke-miterlimit="10"
         x1="465.58099"
         y1="463.496"
         x2="471.06201"
         y2="468.89099"
         id="line5086" />
    </g>
    <line
       style="fill:none;stroke:#a9eff7;stroke-miterlimit:10"
       stroke-miterlimit="10"
       x1="0.5"
       y1="578.91095"
       x2="21.499994"
       y2="578.91095"
       id="line5088" />
    <line
       stroke-miterlimit="10"
       x1="6.9069123"
       y1="603.66974"
       x2="43.250099"
       y2="603.66974"
       id="line5090"
       style="fill:none;stroke:#a9eff7;stroke-width:1.98096311;stroke-miterlimit:10" />
    <line
       style="fill:none;stroke:#a9eff7;stroke-miterlimit:10"
       stroke-miterlimit="10"
       x1="0.5"
       y1="590.91095"
       x2="21.499994"
       y2="590.91095"
       id="line5092" />
    <g
       transform="matrix(1.7306281,0,0,2.2675091,-678.40872,76.941098)"
       style="opacity:0.4"
       id="g5094">
      <g
         style="opacity:0.4"
         id="g5096">
        <polyline
           style="fill:none;stroke:#b5b4b5;stroke-linecap:round;stroke-linejoin:round;stroke-dasharray:1, 3"
           points="    531,414.5 540.5,414.5 540.5,314.5 513,314.5   "
           id="polyline5098" />
        <g
           id="g5100">
          <polygon
             style="fill:#b5b4b5"
             points="532,417.051 529.449,414.5 532,411.948 "
             id="polygon5102" />
        </g>
      </g>
    </g>
    <line
       style="fill:none;stroke:#f9f569;stroke-width:1.98096311;stroke-miterlimit:10"
       stroke-miterlimit="10"
       x1="78.730675"
       y1="731.23981"
       x2="78.730675"
       y2="754.13953"
       id="line5152" />
    <g
       transform="matrix(1.7306281,0,0,2.2675091,-678.40872,76.941098)"
       id="g5154">
      <rect
         style="fill:none"
         x="422.095"
         y="280.80899"
         width="30.802"
         height="4.9879999"
         id="rect5156" />
      <text
         style="font-size:7px;fill:#f9f569;font-family:Quicksand-Regular"
         transform="translate(422.0947,285.709)"
         font-size="7"
         id="text5158">Joyeux</text>
    </g>
    <g
       transform="matrix(1.7306281,0,0,2.2675091,-678.40872,76.941098)"
       id="g5442">
      <g
         id="g5444">
        <g
           id="g5446">
          <linearGradient
             id="linearGradient10622"
             gradientUnits="userSpaceOnUse"
             x1="459.50681"
             y1="229.15041"
             x2="483.5195"
             y2="229.15041">
            <stop
               offset="0.2995"
               style="stop-color:#A9EFF7"
               id="stop10624" />
            <stop
               offset="0.9"
               style="stop-color:#FCB4CE"
               id="stop10626" />
          </linearGradient>
          <path
             style="fill:url(#SVGID_324_)"
             inkscape:connector-curvature="0"
             d="m 468.111,228.839 h 6.304 v 0.504 c 0,1.146 -0.135,2.16 -0.405,3.043 -0.264,0.817 -0.708,1.581 -1.333,2.292 -1.417,1.594 -3.218,2.391 -5.404,2.391 -2.135,0 -3.962,-0.771 -5.483,-2.312 -1.521,-1.548 -2.282,-3.405 -2.282,-5.572 0,-2.213 0.773,-4.09 2.321,-5.631 1.548,-1.548 3.432,-2.322 5.651,-2.322 1.192,0 2.306,0.243 3.34,0.728 0.987,0.485 1.959,1.274 2.914,2.365 l -1.64,1.571 c -1.252,-1.666 -2.776,-2.5 -4.575,-2.5 -1.613,0 -2.967,0.557 -4.061,1.67 -1.093,1.093 -1.64,2.463 -1.64,4.11 0,1.699 0.609,3.099 1.828,4.199 1.139,1.021 2.374,1.532 3.704,1.532 1.133,0 2.15,-0.381 3.054,-1.144 0.902,-0.769 1.406,-1.688 1.511,-2.759 h -3.804 v -2.165 z"
             id="path5453" />
          <linearGradient
             id="linearGradient10629"
             gradientUnits="userSpaceOnUse"
             x1="459.50681"
             y1="229.15041"
             x2="483.5195"
             y2="229.15041">
            <stop
               offset="0.2995"
               style="stop-color:#A9EFF7"
               id="stop10631" />
            <stop
               offset="0.9"
               style="stop-color:#FCB4CE"
               id="stop10633" />
          </linearGradient>
          <path
             style="fill:url(#SVGID_325_)"
             inkscape:connector-curvature="0"
             d="m 480.021,223.692 v 13.091 h -2.302 v -13.091 h -3.507 v -2.164 h 9.307 v 2.164 h -3.498 z"
             id="path5460" />
        </g>
      </g>
      <linearGradient
         id="linearGradient10636"
         gradientUnits="userSpaceOnUse"
         x1="473"
         y1="230"
         x2="480"
         y2="230">
        <stop
           offset="0"
           style="stop-color:#CAD8E7"
           id="stop10638" />
        <stop
           offset="0.2449"
           style="stop-color:#CED5E5"
           id="stop10640" />
        <stop
           offset="0.5134"
           style="stop-color:#DCCBDE"
           id="stop10642" />
        <stop
           offset="0.792"
           style="stop-color:#F1BCD3"
           id="stop10644" />
        <stop
           offset="0.9"
           style="stop-color:#FCB4CE"
           id="stop10646" />
      </linearGradient>
      <rect
         style="fill:url(#SVGID_326_)"
         x="473"
         y="229"
         width="7"
         height="2"
         id="rect5473" />
      <rect
         style="fill:#a9eff7"
         x="456"
         y="228"
         width="4"
         height="3"
         id="rect5475" />
    </g>
  </g>
</svg>
