<?xml version="1.0" encoding="UTF-8" standalone="no"?>
<!-- Created with Inkscape (http://www.inkscape.org/) -->

<svg
   xmlns:dc="http://purl.org/dc/elements/1.1/"
   xmlns:cc="http://creativecommons.org/ns#"
   xmlns:rdf="http://www.w3.org/1999/02/22-rdf-syntax-ns#"
   xmlns:svg="http://www.w3.org/2000/svg"
   xmlns="http://www.w3.org/2000/svg"
   xmlns:sodipodi="http://sodipodi.sourceforge.net/DTD/sodipodi-0.dtd"
   xmlns:inkscape="http://www.inkscape.org/namespaces/inkscape"
   width="336"
   height="476"
   id="svg10967"
   version="1.1"
   inkscape:version="0.48.2 r9819"
   sodipodi:docname="Nouveau document 9">
  <defs
     id="defs10969">
    <linearGradient
       id="SVGID_327_"
       gradientUnits="userSpaceOnUse"
       x1="736.50677"
       y1="229.15041"
       x2="760.51947"
       y2="229.15041">
      <stop
         offset="0.2995"
         style="stop-color:#A9EFF7"
         id="stop5490" />
      <stop
         offset="0.9"
         style="stop-color:#FCB4CE"
         id="stop5492" />
    </linearGradient>
    <linearGradient
       id="SVGID_328_"
       gradientUnits="userSpaceOnUse"
       x1="736.50677"
       y1="229.15041"
       x2="760.51947"
       y2="229.15041">
      <stop
         offset="0.2995"
         style="stop-color:#A9EFF7"
         id="stop5497" />
      <stop
         offset="0.9"
         style="stop-color:#FCB4CE"
         id="stop5499" />
    </linearGradient>
    <linearGradient
       id="SVGID_329_"
       gradientUnits="userSpaceOnUse"
       x1="750"
       y1="230"
       x2="757"
       y2="230">
      <stop
         offset="0"
         style="stop-color:#CAD8E7"
         id="stop5504" />
      <stop
         offset="0.2449"
         style="stop-color:#CED5E5"
         id="stop5506" />
      <stop
         offset="0.5134"
         style="stop-color:#DCCBDE"
         id="stop5508" />
      <stop
         offset="0.792"
         style="stop-color:#F1BCD3"
         id="stop5510" />
      <stop
         offset="0.9"
         style="stop-color:#FCB4CE"
         id="stop5512" />
    </linearGradient>
    <linearGradient
       gradientTransform="matrix(1.8933069,0,0,1.7706638,-1247.7081,199.75395)"
       id="SVGID_2_"
       gradientUnits="userSpaceOnUse"
       x1="698.2207"
       y1="391.49371"
       x2="791.47272"
       y2="391.49371">
      <stop
         offset="0.1"
         style="stop-color:#E7BEEA"
         id="stop2159" />
      <stop
         offset="0.1524"
         style="stop-color:#DDC6EC"
         id="stop2161" />
      <stop
         offset="0.3079"
         style="stop-color:#C6D8F1"
         id="stop2163" />
      <stop
         offset="0.4751"
         style="stop-color:#B6E5F4"
         id="stop2165" />
      <stop
         offset="0.6605"
         style="stop-color:#ACEDF6"
         id="stop2167" />
      <stop
         offset="0.9"
         style="stop-color:#A9EFF7"
         id="stop2169" />
    </linearGradient>
    <linearGradient
       gradientTransform="matrix(1.8933069,0,0,1.7706638,-1247.7081,199.75395)"
       id="SVGID_1_"
       gradientUnits="userSpaceOnUse"
       x1="695.4541"
       y1="413.65619"
       x2="798.83789"
       y2="413.65619">
      <stop
         offset="0.1"
         style="stop-color:#E7C5EA"
         id="stop2132" />
      <stop
         offset="0.1524"
         style="stop-color:#DDCCEC"
         id="stop2134" />
      <stop
         offset="0.3079"
         style="stop-color:#C6DBF1"
         id="stop2136" />
      <stop
         offset="0.4751"
         style="stop-color:#B6E6F4"
         id="stop2138" />
      <stop
         offset="0.6605"
         style="stop-color:#ACEDF6"
         id="stop2140" />
      <stop
         offset="0.9"
         style="stop-color:#A9EFF7"
         id="stop2142" />
    </linearGradient>
  </defs>
  <sodipodi:namedview
     id="base"
     pagecolor="#ffffff"
     bordercolor="#666666"
     borderopacity="1.0"
     inkscape:pageopacity="0.0"
     inkscape:pageshadow="2"
     inkscape:zoom="1.2851158"
     inkscape:cx="217.64898"
     inkscape:cy="231.25182"
     inkscape:document-units="px"
     inkscape:current-layer="layer1"
     showgrid="false"
     inkscape:window-width="1366"
     inkscape:window-height="739"
     inkscape:window-x="-9"
     inkscape:window-y="-9"
     inkscape:window-maximized="1" />
  <metadata
     id="metadata10972">
    <rdf:RDF>
      <cc:Work
         rdf:about="">
        <dc:format>image/svg+xml</dc:format>
        <dc:type
           rdf:resource="http://purl.org/dc/dcmitype/StillImage" />
        <dc:title></dc:title>
      </cc:Work>
    </rdf:RDF>
  </metadata>
  <g
     inkscape:label="Calque 1"
     inkscape:groupmode="layer"
     id="layer1"
     transform="translate(0,-576.36218)">
    <rect
       style="fill:#ffffff"
       x="-0.018858694"
       y="580.44666"
       width="333.22202"
       height="469.22592"
       id="rect2081" />
    <path
       style="fill:url(#SVGID_1_);stroke:#d6d6d6;stroke-width:0.45773968;stroke-miterlimit:10"
       inkscape:connector-curvature="0"
       stroke-miterlimit="10"
       d="m 264.73738,932.19965 c 0,5.26064 -4.55908,9.5244 -10.1822,9.5244 H 79.183837 c -5.625015,0 -10.184098,-4.26376 -10.184098,-9.5244 l 0,0 c 0,-5.25887 4.559083,-9.52263 10.184098,-9.52263 H 254.55518 c 5.62312,0 10.1822,4.26553 10.1822,9.52263 l 0,0 z"
       id="path2144" />
    <circle
       transform="matrix(1.8933069,0,0,1.7706638,-1247.7081,199.75396)"
       style="fill:#ffffff;stroke:#d6d6d6;stroke-width:0.25;stroke-miterlimit:10"
       sodipodi:ry="5.5279999"
       sodipodi:rx="5.5279999"
       sodipodi:cy="413.806"
       sodipodi:cx="700.98199"
       stroke-miterlimit="10"
       cx="700.98199"
       cy="413.806"
       r="5.5279999"
       id="circle2146"
       d="m 706.50999,413.806 c 0,3.05303 -2.47497,5.528 -5.528,5.528 -3.05303,0 -5.528,-2.47497 -5.528,-5.528 0,-3.05303 2.47497,-5.528 5.528,-5.528 3.05303,0 5.528,2.47497 5.528,5.528 z" />
    <circle
       transform="matrix(1.8933069,0,0,1.7706638,-1247.7081,199.75396)"
       style="fill:#ffffff;stroke:#d6d6d6;stroke-width:0.25;stroke-miterlimit:10"
       sodipodi:ry="5.527"
       sodipodi:rx="5.527"
       sodipodi:cy="413.806"
       sodipodi:cx="793.31097"
       stroke-miterlimit="10"
       cx="793.31097"
       cy="413.806"
       r="5.527"
       id="circle2148"
       d="m 798.83797,413.806 c 0,3.05248 -2.47452,5.527 -5.527,5.527 -3.05247,0 -5.527,-2.47452 -5.527,-5.527 0,-3.05248 2.47453,-5.527 5.527,-5.527 3.05248,0 5.527,2.47452 5.527,5.527 z" />
    <rect
       style="fill:none"
       x="33.553246"
       y="955.2077"
       width="125.01505"
       height="27.450602"
       id="rect2150" />
    <text
       y="996.70587"
       x="32.449036"
       style="font-size:12.81671143px;fill:#e7c5ea;font-family:Quicksand-Regular"
       font-size="7"
       id="text2152"
       transform="scale(1.0340522,0.96706919)">mélancolique</text>
    <rect
       style="fill:none"
       x="229.12238"
       y="955.2077"
       width="52.63393"
       height="19.061197"
       id="rect2154" />
    <text
       y="996.70587"
       x="221.57777"
       style="font-size:12.81671143px;fill:#a9eff7;font-family:Quicksand-Regular"
       font-size="7"
       id="text2156"
       transform="scale(1.0340522,0.96706919)">calme</text>
    <path
       style="fill:none;stroke:url(#SVGID_2_);stroke-width:1.83095872;stroke-miterlimit:10"
       inkscape:connector-curvature="0"
       stroke-miterlimit="10"
       d="m 75.039388,901.35114 c 0,0 10.930061,-16.22282 14.892752,-9.17203 3.960798,7.05432 3.209155,12.6992 7.732265,9.17203 4.526895,-3.52716 7.542935,-15.54642 12.823365,-10.94801 5.28044,4.59841 8.29837,20.87081 11.3163,12.02812 3.01604,-8.84093 5.27854,-21.53836 9.80354,-21.53836 4.5269,0 17.03976,15.51987 19.83618,17.63582 2.79641,2.11594 99.3437,1.41122 99.3437,1.41122"
       id="path2171" />
    <rect
       style="fill:#ffffff;stroke:#d6d6d6;stroke-width:0.45773968;stroke-miterlimit:10"
       x="133.11469"
       y="918.26984"
       stroke-miterlimit="10"
       width="3.0179312"
       height="28.922022"
       id="rect2173" />
    <circle
       transform="matrix(1.8933069,0,0,1.7706638,-1247.7081,199.75396)"
       style="fill:#a9eff7"
       sodipodi:ry="2.092"
       sodipodi:rx="2.092"
       sodipodi:cy="413.806"
       sodipodi:cx="793.31097"
       cx="793.31097"
       cy="413.806"
       r="2.092"
       id="circle2175"
       d="m 795.40297,413.806 c 0,1.15538 -0.93662,2.092 -2.092,2.092 -1.15538,0 -2.092,-0.93662 -2.092,-2.092 0,-1.15538 0.93662,-2.092 2.092,-2.092 1.15538,0 2.092,0.93662 2.092,2.092 z" />
    <circle
       transform="matrix(1.8933069,0,0,1.7706638,-1247.7081,199.75396)"
       style="fill:#e7c5ea"
       sodipodi:ry="2.0910001"
       sodipodi:rx="2.0910001"
       sodipodi:cy="413.806"
       sodipodi:cx="700.98199"
       cx="700.98199"
       cy="413.806"
       r="2.0910001"
       id="circle2177"
       d="m 703.07299,413.806 c 0,1.15483 -0.93617,2.091 -2.091,2.091 -1.15482,0 -2.091,-0.93617 -2.091,-2.091 0,-1.15483 0.93618,-2.091 2.091,-2.091 1.15483,0 2.091,0.93617 2.091,2.091 z" />
    <g
       transform="matrix(1.8933069,0,0,1.7706638,-1247.7081,199.75396)"
       id="g4400">
      <rect
         style="fill:none"
         x="659"
         y="261.94501"
         width="176"
         height="20.673"
         id="rect4402" />
      <text
         style="font-size:11px;fill:#c4c4c4;font-family:Quicksand-Regular"
         transform="translate(694.6953,269.6455)"
         font-size="11"
         id="text4404">DEUX éMOTIONS ?</text>
    </g>
    <g
       transform="matrix(1.8933069,0,0,1.7706638,-1247.7081,199.75396)"
       id="g4406">
      <rect
         style="fill:none"
         x="659.03101"
         y="362.64001"
         width="175.96899"
         height="43.334"
         id="rect4408" />
      <text
         style="font-size:11px;fill:#c4c4c4;font-family:Quicksand-Regular"
         transform="translate(713.2734,370.3398)"
         font-size="11"
         id="text4410">Intensité ?</text>
    </g>
    <rect
       style="fill:#ffffff"
       x="138.19255"
       y="599.92395"
       width="9.4665346"
       height="3.5413277"
       id="rect4974" />
    <rect
       style="opacity:0.8;fill:#a9eff7"
       x="-0.018858694"
       y="994.78198"
       width="333.22202"
       height="54.890579"
       id="rect4984" />
    <circle
       transform="matrix(1.8933069,0,0,1.7706638,-1247.7081,199.75396)"
       style="fill:none;stroke:#ffffff;stroke-width:0.25;stroke-miterlimit:10"
       sodipodi:ry="9.5609999"
       sodipodi:rx="9.5609999"
       sodipodi:cy="464.22101"
       sodipodi:cx="807.82703"
       stroke-miterlimit="10"
       cx="807.82703"
       cy="464.22101"
       r="9.5609999"
       id="circle4986"
       d="m 817.38803,464.22101 c 0,5.28039 -4.28061,9.561 -9.561,9.561 -5.2804,0 -9.561,-4.28061 -9.561,-9.561 0,-5.2804 4.2806,-9.561 9.561,-9.561 5.28039,0 9.561,4.2806 9.561,9.561 z" />
    <circle
       transform="matrix(1.8933069,0,0,1.7706638,-1247.7081,199.75396)"
       style="fill:none;stroke:#ffffff;stroke-width:0.25;stroke-miterlimit:10"
       sodipodi:ry="9.5609999"
       sodipodi:rx="9.5609999"
       sodipodi:cy="464.22101"
       sodipodi:cx="688.14398"
       stroke-miterlimit="10"
       cx="688.14398"
       cy="464.22101"
       r="9.5609999"
       id="circle4988"
       d="m 697.70498,464.22101 c 0,5.28039 -4.2806,9.561 -9.561,9.561 -5.28039,0 -9.561,-4.28061 -9.561,-9.561 0,-5.2804 4.28061,-9.561 9.561,-9.561 5.2804,0 9.561,4.2806 9.561,9.561 z" />
    <circle
       transform="matrix(1.8933069,0,0,1.7706638,-1247.7081,199.75396)"
       style="fill:none;stroke:#ffffff;stroke-miterlimit:10"
       sodipodi:ry="14.062"
       sodipodi:rx="14.062"
       sodipodi:cy="464.22101"
       sodipodi:cx="748.27197"
       stroke-miterlimit="10"
       cx="748.27197"
       cy="464.22101"
       r="14.062"
       id="circle4990"
       d="m 762.33397,464.22101 c 0,7.76623 -6.29577,14.062 -14.062,14.062 -7.76623,0 -14.062,-6.29577 -14.062,-14.062 0,-7.76623 6.29577,-14.062 14.062,-14.062 7.76623,0 14.062,6.29577 14.062,14.062 z" />
    <circle
       transform="matrix(1.8933069,0,0,1.7706638,-1247.7081,199.75396)"
       style="fill:none;stroke:#d6d6d6;stroke-width:0.25;stroke-miterlimit:10"
       sodipodi:ry="6.4320002"
       sodipodi:rx="6.4320002"
       sodipodi:cy="301.03699"
       sodipodi:cx="713.43201"
       stroke-miterlimit="10"
       cx="713.43201"
       cy="301.03699"
       r="6.4320002"
       id="circle4992"
       d="m 719.86401,301.03699 c 0,3.55229 -2.87971,6.432 -6.432,6.432 -3.5523,0 -6.432,-2.87971 -6.432,-6.432 0,-3.5523 2.8797,-6.432 6.432,-6.432 3.55229,0 6.432,2.8797 6.432,6.432 z" />
    <circle
       transform="matrix(1.8933069,0,0,1.7706638,-1247.7081,199.75396)"
       style="fill:#f9f569"
       sodipodi:ry="2.434"
       sodipodi:rx="2.434"
       sodipodi:cy="301.03699"
       sodipodi:cx="713.43103"
       cx="713.43103"
       cy="301.03699"
       r="2.434"
       id="circle4994"
       d="m 715.86503,301.03699 c 0,1.34426 -1.08974,2.434 -2.434,2.434 -1.34426,0 -2.434,-1.08974 -2.434,-2.434 0,-1.34426 1.08974,-2.434 2.434,-2.434 1.34426,0 2.434,1.08974 2.434,2.434 z" />
    <circle
       transform="matrix(1.8933069,0,0,1.7706638,-1247.7081,199.75396)"
       style="fill:none;stroke:#d6d6d6;stroke-width:0.25;stroke-miterlimit:10"
       sodipodi:ry="6.4330001"
       sodipodi:rx="6.4330001"
       sodipodi:cy="301.03699"
       sodipodi:cx="746.64301"
       stroke-miterlimit="10"
       cx="746.64301"
       cy="301.03699"
       r="6.4330001"
       id="circle4996"
       d="m 753.07601,301.03699 c 0,3.55285 -2.88016,6.433 -6.433,6.433 -3.55285,0 -6.433,-2.88015 -6.433,-6.433 0,-3.55285 2.88015,-6.433 6.433,-6.433 3.55284,0 6.433,2.88015 6.433,6.433 z" />
    <circle
       transform="matrix(1.8933069,0,0,1.7706638,-1247.7081,199.75396)"
       style="fill:#fcb4ce"
       sodipodi:ry="2.4330001"
       sodipodi:rx="2.4330001"
       sodipodi:cy="301.03699"
       sodipodi:cx="746.64301"
       cx="746.64301"
       cy="301.03699"
       r="2.4330001"
       id="circle4998"
       d="m 749.07601,301.03699 c 0,1.34371 -1.0893,2.433 -2.433,2.433 -1.34371,0 -2.433,-1.08929 -2.433,-2.433 0,-1.34371 1.08929,-2.433 2.433,-2.433 1.3437,0 2.433,1.08929 2.433,2.433 z" />
    <path
       style="fill:none;stroke:#d6d6d6;stroke-width:0.45773968;stroke-miterlimit:10"
       inkscape:connector-curvature="0"
       stroke-miterlimit="10"
       d="m 240.74918,732.78926 c 0,6.28763 -5.44894,11.38891 -12.18153,11.38891 -6.72692,0 -12.17397,-5.09951 -12.17397,-11.38891 0,-6.29117 5.44705,-11.39068 12.17397,-11.39068 6.73259,0 12.18153,5.09774 12.18153,11.39068 z"
       id="path5000" />
    <circle
       transform="matrix(1.8933069,0,0,1.7706638,-1247.7081,199.75396)"
       style="fill:#f8533d"
       sodipodi:ry="2.434"
       sodipodi:rx="2.434"
       sodipodi:cy="301.03699"
       sodipodi:cx="779.73401"
       cx="779.73401"
       cy="301.03699"
       r="2.434"
       id="circle5002"
       d="m 782.16801,301.03699 c 0,1.34426 -1.08974,2.434 -2.434,2.434 -1.34426,0 -2.434,-1.08974 -2.434,-2.434 0,-1.34426 1.08974,-2.434 2.434,-2.434 1.34426,0 2.434,1.08974 2.434,2.434 z" />
    <circle
       transform="matrix(1.8933069,0,0,1.7706638,-1247.7081,199.75396)"
       style="fill:none;stroke:#d6d6d6;stroke-width:0.25;stroke-miterlimit:10"
       sodipodi:ry="6.4330001"
       sodipodi:rx="6.4330001"
       sodipodi:cy="326.759"
       sodipodi:cx="746.64301"
       stroke-miterlimit="10"
       cx="746.64301"
       cy="326.759"
       r="6.4330001"
       id="circle5004"
       d="m 753.07601,326.759 c 0,3.55285 -2.88016,6.433 -6.433,6.433 -3.55285,0 -6.433,-2.88015 -6.433,-6.433 0,-3.55285 2.88015,-6.433 6.433,-6.433 3.55284,0 6.433,2.88015 6.433,6.433 z" />
    <circle
       transform="matrix(1.8933069,0,0,1.7706638,-1247.7081,199.75396)"
       style="fill:#e6e8e8"
       sodipodi:ry="2.4330001"
       sodipodi:rx="2.4330001"
       sodipodi:cy="326.759"
       sodipodi:cx="746.64301"
       cx="746.64301"
       cy="326.759"
       r="2.4330001"
       id="circle5006"
       d="m 749.07601,326.759 c 0,1.34371 -1.0893,2.433 -2.433,2.433 -1.34371,0 -2.433,-1.08929 -2.433,-2.433 0,-1.34371 1.08929,-2.433 2.433,-2.433 1.3437,0 2.433,1.08929 2.433,2.433 z" />
    <g
       transform="matrix(1.8933069,0,0,1.7706638,-1247.7081,199.75396)"
       id="g5010">
      <line
         style="fill:none;stroke:#ffffff;stroke-miterlimit:10"
         stroke-miterlimit="10"
         x1="807.82703"
         y1="459.134"
         x2="807.82703"
         y2="469.30899"
         id="line5012" />
      <line
         style="fill:none;stroke:#ffffff;stroke-miterlimit:10"
         stroke-miterlimit="10"
         x1="802.74103"
         y1="464.22198"
         x2="812.91302"
         y2="464.22198"
         id="line5014" />
    </g>
    <g
       transform="matrix(1.8933069,0,0,1.7706638,-1247.7081,199.75396)"
       id="g5020">
      <path
         style="fill:#ffffff"
         inkscape:connector-curvature="0"
         d="m 692.395,463.437 h -3.188 l 1.191,-1.191 c -0.603,-0.603 -1.403,-0.935 -2.255,-0.935 -0.85,0 -1.652,0.332 -2.253,0.935 -0.603,0.602 -0.935,1.402 -0.935,2.255 0,0.851 0.332,1.651 0.935,2.253 0.601,0.603 1.403,0.935 2.253,0.935 0.852,0 1.652,-0.332 2.255,-0.935 0.049,-0.05 0.099,-0.103 0.146,-0.155 l 0.799,0.7 c -0.779,0.89 -1.925,1.452 -3.199,1.452 -2.348,0 -4.25,-1.903 -4.25,-4.25 0,-2.35 1.902,-4.251 4.25,-4.251 1.174,0 2.237,0.476 3.006,1.244 l 1.245,-1.244 v 3.187 z"
         id="path5022" />
    </g>
    <path
       style="opacity:0.3;fill:none;stroke:#ffffff;stroke-width:1.83095872;stroke-miterlimit:10"
       inkscape:connector-curvature="0"
       stroke-miterlimit="10"
       d="m 117.99852,1049.6797 c -4.96425,-7.9981 -7.8061,-17.2888 -7.8061,-27.201 0,-10.1193 2.96113,-19.5888 8.12039,-27.69848"
       id="path5024" />
    <path
       style="opacity:0.3;fill:none;stroke:#ffffff;stroke-width:1.83095872;stroke-miterlimit:10"
       inkscape:connector-curvature="0"
       stroke-miterlimit="10"
       d="m 218.10334,994.78376 c 5.15547,8.10614 8.11471,17.57734 8.11471,27.69494 0,9.9122 -2.84185,19.2029 -7.80421,27.1974"
       id="path5026" />
    <path
       style="opacity:0.6;fill:none;stroke:#ffffff;stroke-width:1.83095872;stroke-miterlimit:10"
       inkscape:connector-curvature="0"
       stroke-miterlimit="10"
       d="m 144.43855,1049.6797 c -8.21695,-6.6206 -13.41976,-16.423 -13.41976,-27.3639 0,-11.0348 5.29558,-20.9151 13.63749,-27.53735"
       id="path5028" />
    <path
       style="opacity:0.6;fill:none;stroke:#ffffff;stroke-width:1.83095872;stroke-miterlimit:10"
       inkscape:connector-curvature="0"
       stroke-miterlimit="10"
       d="m 194.60551,994.78553 c 8.33623,6.62227 13.62613,16.49727 13.62613,27.53027 0,10.9409 -5.20092,20.7433 -13.41787,27.3639"
       id="path5030" />
    <g
       transform="matrix(1.8933069,0,0,1.7706638,-1247.7081,199.75396)"
       id="g5042">
      <line
         style="fill:none;stroke:#ffffff;stroke-miterlimit:10"
         stroke-miterlimit="10"
         x1="755.62299"
         y1="459.552"
         x2="746.42603"
         y2="468.89099"
         id="line5044" />
      <line
         style="fill:none;stroke:#ffffff;stroke-miterlimit:10"
         stroke-miterlimit="10"
         x1="741.58099"
         y1="463.496"
         x2="747.06201"
         y2="468.89099"
         id="line5046" />
    </g>
    <g
       transform="matrix(1.8933069,0,0,1.7706638,-1247.7081,199.75396)"
       style="opacity:0.4"
       id="g5104">
      <g
         style="opacity:0.4"
         id="g5106">
        <polyline
           style="fill:none;stroke:#b5b4b5;stroke-linecap:round;stroke-linejoin:round;stroke-dasharray:1, 3"
           points="    685,414.5 676.5,414.5 676.5,314.5 703,314.5   "
           id="polyline5108" />
        <g
           id="g5110">
          <polygon
             style="fill:#b5b4b5"
             points="685,417.052 685,411.949 687.551,414.5 "
             id="polygon5112" />
        </g>
      </g>
    </g>
    <g
       transform="matrix(1.8933069,0,0,1.7706638,-1247.7081,199.75396)"
       style="opacity:0.4"
       id="g5114">
      <g
         style="opacity:0.4"
         id="g5116">
        <polyline
           style="fill:none;stroke:#b5b4b5;stroke-linecap:round;stroke-linejoin:round;stroke-dasharray:1, 3"
           points="    807,414.5 816.5,414.5 816.5,314.5 789,314.5   "
           id="polyline5118" />
        <g
           id="g5120">
          <polygon
             style="fill:#b5b4b5"
             points="808,411.948 808,417.051 805.449,414.5 "
             id="polygon5122" />
        </g>
      </g>
    </g>
    <line
       style="fill:none;stroke:#a9eff7;stroke-width:1.83095872;stroke-miterlimit:10"
       stroke-miterlimit="10"
       x1="15.127598"
       y1="593.72662"
       x2="54.887039"
       y2="593.72662"
       id="line5477" />
    <line
       style="fill:none;stroke:#a9eff7;stroke-width:1.83095872;stroke-miterlimit:10"
       stroke-miterlimit="10"
       x1="15.127598"
       y1="604.35059"
       x2="54.887039"
       y2="604.35059"
       id="line5479" />
    <line
       style="fill:none;stroke:#a9eff7;stroke-width:1.83095872;stroke-miterlimit:10"
       stroke-miterlimit="10"
       x1="15.127598"
       y1="614.97461"
       x2="54.887039"
       y2="614.97461"
       id="line5481" />
    <g
       transform="matrix(1.8933069,0,0,1.7706638,-1247.7081,199.75396)"
       id="g5483">
      <g
         id="g5485">
        <g
           id="g5487">
          <linearGradient
             id="linearGradient10939"
             gradientUnits="userSpaceOnUse"
             x1="736.50677"
             y1="229.15041"
             x2="760.51947"
             y2="229.15041">
            <stop
               offset="0.2995"
               style="stop-color:#A9EFF7"
               id="stop10941" />
            <stop
               offset="0.9"
               style="stop-color:#FCB4CE"
               id="stop10943" />
          </linearGradient>
          <path
             style="fill:url(#SVGID_327_)"
             inkscape:connector-curvature="0"
             d="m 745.111,228.839 h 6.304 v 0.504 c 0,1.146 -0.135,2.16 -0.405,3.043 -0.264,0.817 -0.708,1.581 -1.333,2.292 -1.417,1.594 -3.218,2.391 -5.404,2.391 -2.135,0 -3.962,-0.771 -5.483,-2.312 -1.521,-1.548 -2.282,-3.405 -2.282,-5.572 0,-2.213 0.773,-4.09 2.321,-5.631 1.548,-1.548 3.432,-2.322 5.651,-2.322 1.192,0 2.306,0.243 3.34,0.728 0.987,0.485 1.959,1.274 2.914,2.365 l -1.64,1.571 c -1.252,-1.666 -2.776,-2.5 -4.575,-2.5 -1.613,0 -2.967,0.557 -4.061,1.67 -1.093,1.093 -1.64,2.463 -1.64,4.11 0,1.699 0.609,3.099 1.828,4.199 1.139,1.021 2.374,1.532 3.704,1.532 1.133,0 2.15,-0.381 3.054,-1.144 0.902,-0.769 1.406,-1.688 1.511,-2.759 h -3.804 v -2.165 z"
             id="path5494" />
          <linearGradient
             id="linearGradient10946"
             gradientUnits="userSpaceOnUse"
             x1="736.50677"
             y1="229.15041"
             x2="760.51947"
             y2="229.15041">
            <stop
               offset="0.2995"
               style="stop-color:#A9EFF7"
               id="stop10948" />
            <stop
               offset="0.9"
               style="stop-color:#FCB4CE"
               id="stop10950" />
          </linearGradient>
          <path
             style="fill:url(#SVGID_328_)"
             inkscape:connector-curvature="0"
             d="m 757.021,223.692 v 13.091 h -2.302 v -13.091 h -3.507 v -2.164 h 9.307 v 2.164 h -3.498 z"
             id="path5501" />
        </g>
      </g>
      <linearGradient
         id="linearGradient10953"
         gradientUnits="userSpaceOnUse"
         x1="750"
         y1="230"
         x2="757"
         y2="230">
        <stop
           offset="0"
           style="stop-color:#CAD8E7"
           id="stop10955" />
        <stop
           offset="0.2449"
           style="stop-color:#CED5E5"
           id="stop10957" />
        <stop
           offset="0.5134"
           style="stop-color:#DCCBDE"
           id="stop10959" />
        <stop
           offset="0.792"
           style="stop-color:#F1BCD3"
           id="stop10961" />
        <stop
           offset="0.9"
           style="stop-color:#FCB4CE"
           id="stop10963" />
      </linearGradient>
      <rect
         style="fill:url(#SVGID_329_)"
         x="750"
         y="229"
         width="7"
         height="2"
         id="rect5514" />
      <rect
         style="fill:#a9eff7"
         x="733"
         y="228"
         width="4"
         height="3"
         id="rect5516" />
    </g>
  </g>
</svg>
