<?xml version="1.0" encoding="utf-8"?>
<!-- Generator: Adobe Illustrator 16.0.0, SVG Export Plug-In . SVG Version: 6.00 Build 0)  -->
<!DOCTYPE svg PUBLIC "-//W3C//DTD SVG 1.1//EN" "http://www.w3.org/Graphics/SVG/1.1/DTD/svg11.dtd">
<svg version="1.1" xmlns="http://www.w3.org/2000/svg" xmlns:xlink="http://www.w3.org/1999/xlink" x="0px" y="0px"
	 width="795.079px" height="1545.154px" viewBox="0 0 795.079 1545.154" enable-background="new 0 0 795.079 1545.154"
	 xml:space="preserve">
<g id="interface_bouton">
	<path fill="#FFFFFF" d="M77.539,283.245v958.464h640V283.245H77.539z"/>
	<path fill="#FFFFFF" d="M643.203,58.701h-18.397v-2.903c0-4.144-3.36-7.52-7.504-7.52h-115.41c-4.144,0-7.535,3.375-7.535,7.52
		v2.903h-340.85C90.81,58.701,39.8,109.71,39.8,172.406v13.529h-4.828c-4.143,0-7.51,3.376-7.51,7.527v57.795
		c0,4.135,3.367,7.51,7.51,7.51H39.8v100.046h-4.828c-4.143,0-7.51,3.369-7.51,7.51v38.583c0,4.158,3.367,7.534,7.51,7.534H39.8
		v61.611h-4.828c-4.143,0-7.51,3.378-7.51,7.536v38.574c0,4.142,3.367,7.519,7.51,7.519H39.8v867.495
		c0,62.695,51.01,113.697,113.706,113.697h489.696c62.68,0,113.682-51.002,113.682-113.697V172.406
		C756.884,109.71,705.882,58.701,643.203,58.701z M713.678,1244.748H73.44V284.391h640.238V1244.748z"/>
	<path fill="#000100" d="M643.203,58.701h-18.397v-2.903c0-4.144-3.36-7.52-7.504-7.52h-115.41c-4.144,0-7.535,3.375-7.535,7.52
		v2.903h-340.85C90.81,58.701,39.8,109.71,39.8,172.406v13.529h-4.828c-4.142,0-7.51,3.376-7.51,7.527v57.795
		c0,4.135,3.368,7.51,7.51,7.51H39.8v100.046h-4.828c-4.142,0-7.51,3.369-7.51,7.51v38.583c0,4.158,3.368,7.534,7.51,7.534H39.8
		v61.611h-4.828c-4.142,0-7.51,3.378-7.51,7.536v38.574c0,4.142,3.368,7.519,7.51,7.519H39.8v867.495
		c0,62.695,51.009,113.697,113.706,113.697h489.696c62.68,0,113.682-51.002,113.682-113.697V172.406
		C756.884,109.71,705.882,58.701,643.203,58.701z M341.35,170.702h104.354c7.845,0,14.271,5.562,14.271,12.411
		c0,6.843-6.426,12.404-14.271,12.404H341.35c-7.878,0-14.271-5.562-14.271-12.404C327.08,176.263,333.472,170.702,341.35,170.702z
		 M287.086,171.102c6.623,0,12.005,5.382,12.005,12.011c0,6.63-5.382,12.005-12.005,12.005c-6.622,0-12.004-5.375-12.004-12.005
		C275.083,176.484,280.465,171.102,287.086,171.102z M393.56,1443.244c-38.9,0-70.429-31.545-70.429-70.428
		c0-38.9,31.529-70.426,70.429-70.426c38.883,0,70.426,31.525,70.426,70.426C463.986,1411.699,432.443,1443.244,393.56,1443.244z
		 M713.678,1244.748H73.44V284.391h640.238V1244.748z"/>
	<circle fill="#EC694A" cx="211.612" cy="663.471" r="44.195"/>
	<circle fill="#F5A357" cx="277.904" cy="685.568" r="22.097"/>
	<rect x="211.612" y="672.371" fill="#FFFFFF" width="44.195" height="2.456"/>
	<rect x="211.612" y="672.371" fill="#FFFFFF" width="2.455" height="7.366"/>
	<rect x="267.009" y="694.162" fill="#FFFFFF" width="32.992" height="2.452"/>
	<g>
		<path fill="#FFE463" d="M389.619,638.918h35.521c-7.928-11.843-21.426-19.642-36.748-19.642c-15.321,0-28.819,7.799-36.748,19.642
			h35.521H389.619z"/>
		<path fill="#FFE463" d="M389.619,707.635c23.839-0.652,42.967-20.167,42.967-44.164c0-8.053-2.165-15.595-5.927-22.097h-37.041
			V707.635z"/>
		<path fill="#FFE463" d="M350.124,641.374c-3.763,6.502-5.927,14.044-5.927,22.097c0,23.998,19.129,43.512,42.967,44.164v-66.261
			H350.124z"/>
		<path fill="#FFFFFF" d="M387.164,638.918h-35.521c-0.535,0.799-1.037,1.621-1.52,2.455h37.04V638.918z"/>
		<path fill="#FFFFFF" d="M389.619,638.918v2.455h37.041c-0.483-0.834-0.985-1.656-1.52-2.455H389.619z"/>
		<path fill="#FFFFFF" d="M387.164,707.635v0.645h2.455v-0.645c-0.409,0.011-0.816,0.031-1.228,0.031
			S387.573,707.646,387.164,707.635z"/>
		<path fill="#FFFFFF" d="M387.164,641.374v66.261c0.409,0.011,0.816,0.031,1.228,0.031s0.818-0.02,1.228-0.031v-66.261H387.164z"/>
		<rect x="387.164" y="638.918" fill="#FFFFFF" width="2.455" height="2.455"/>
	</g>
	<g>
		<path fill="#B4D300" d="M443.788,694.088h31.288c1.097-2.622,1.705-5.5,1.705-8.52c0-12.205-9.893-22.098-22.098-22.098
			c-12.204,0-22.097,9.893-22.097,22.098c0,12.204,9.893,22.097,22.097,22.097c8.21,0,15.368-4.48,19.179-11.125h-30.074V694.088z"
			/>
		<path fill="#FFFFFF" d="M443.788,694.088v2.452h30.074c0.452-0.789,0.86-1.605,1.214-2.452H443.788z"/>
	</g>
	<g>
		<path fill="#90D0DA" d="M526.393,700.3c3.5-3.91,5.631-9.071,5.631-14.732s-2.131-10.823-5.631-14.732l-14.732,14.732
			L526.393,700.3z"/>
		<path fill="#90D0DA" d="M494.5,701.382l-0.387-0.387C494.24,701.126,494.369,701.255,494.5,701.382z"/>
		<path fill="#90D0DA" d="M525.317,669.719l0.456,0.456C525.623,670.02,525.471,669.869,525.317,669.719z"/>
		<path fill="#90D0DA" d="M494.125,670.128l0.363-0.363C494.365,669.885,494.244,670.006,494.125,670.128z"/>
		<path fill="#90D0DA" d="M524.659,669.102c-3.909-3.5-9.071-5.631-14.732-5.631s-10.823,2.131-14.732,5.632l14.733,14.732
			L524.659,669.102z"/>
		<path fill="#90D0DA" d="M525.771,700.964l-0.448,0.448C525.474,701.265,525.624,701.116,525.771,700.964z"/>
		<path fill="#90D0DA" d="M493.461,670.836c-3.5,3.91-5.631,9.071-5.631,14.732s2.131,10.823,5.632,14.733l14.732-14.733
			L493.461,670.836z"/>
		<path fill="#90D0DA" d="M495.195,702.035c3.91,3.5,9.071,5.631,14.732,5.631c5.661,0,10.822-2.131,14.732-5.631l-14.732-14.732
			L495.195,702.035z"/>
		<path fill="#FFFFFF" d="M495.173,702.056l0.021-0.021c-0.237-0.212-0.468-0.43-0.695-0.652L495.173,702.056z"/>
		<path fill="#FFFFFF" d="M493.439,670.814l0.022,0.022c0.216-0.241,0.438-0.476,0.664-0.708L493.439,670.814z"/>
		<path fill="#FFFFFF" d="M524.68,702.055l0.643-0.643c-0.218,0.211-0.438,0.42-0.664,0.622L524.68,702.055z"/>
		<path fill="#FFFFFF" d="M493.44,700.323l0.673,0.673c-0.222-0.227-0.439-0.458-0.651-0.694L493.44,700.323z"/>
		<path fill="#FFFFFF" d="M495.172,669.081l-0.685,0.685c0.231-0.226,0.466-0.447,0.707-0.663L495.172,669.081z"/>
		<path fill="#FFFFFF" d="M526.393,700.3c-0.203,0.226-0.411,0.446-0.622,0.664l0.643-0.643L526.393,700.3z"/>
		<path fill="#FFFFFF" d="M526.414,670.815l-0.641-0.641c0.21,0.217,0.418,0.437,0.62,0.662L526.414,670.815z"/>
		<path fill="#FFFFFF" d="M524.68,669.082l-0.021,0.021c0.225,0.201,0.443,0.407,0.658,0.617L524.68,669.082z"/>
		<path fill="#FFFFFF" d="M511.661,685.568l14.732-14.732c-0.202-0.225-0.409-0.445-0.62-0.662l-0.456-0.456
			c-0.215-0.209-0.434-0.416-0.658-0.617l-14.731,14.733l-14.733-14.732c-0.241,0.215-0.476,0.437-0.707,0.663l-0.363,0.363
			c-0.226,0.231-0.448,0.466-0.664,0.708l14.732,14.732l-14.732,14.733c0.212,0.236,0.43,0.467,0.651,0.694l0.387,0.387
			c0.228,0.222,0.458,0.44,0.695,0.652l14.732-14.732l14.732,14.732c0.226-0.202,0.446-0.411,0.664-0.622l0.448-0.448
			c0.211-0.218,0.419-0.438,0.622-0.664L511.661,685.568z"/>
	</g>
	<g>
		<path fill="#9568AD" d="M577.446,707.635c23.839-0.652,42.967-20.167,42.967-44.164c0-8.074-2.176-15.635-5.957-22.149h-37.011
			V707.635z"/>
		<path fill="#9568AD" d="M577.446,638.867h35.488c-7.933-11.814-21.415-19.59-36.715-19.59s-28.782,7.776-36.715,19.59h35.488
			H577.446z"/>
		<path fill="#9568AD" d="M537.98,641.322c-3.781,6.514-5.957,14.075-5.957,22.149c0,23.998,19.128,43.512,42.967,44.164v-66.313
			H537.98z"/>
		<path fill="#FFFFFF" d="M577.446,707.666v-0.031c-0.409,0.011-0.816,0.031-1.228,0.031H577.446z"/>
		<path fill="#FFFFFF" d="M574.991,707.666h1.228c-0.412,0-0.819-0.02-1.228-0.031V707.666z"/>
		<path fill="#FFFFFF" d="M577.446,638.867h-2.455h-35.488c-0.536,0.798-1.039,1.621-1.523,2.455h37.011v66.313
			c0.409,0.011,0.816,0.031,1.228,0.031s0.819-0.02,1.228-0.031v-66.313h37.011c-0.484-0.834-0.987-1.657-1.523-2.455H577.446z"/>
	</g>
	<path fill="none" stroke="#1D1D1B" stroke-miterlimit="10" d="M393.916,707.523"/>
	<rect x="72.173" y="285.756" fill="none" stroke="#3C3C3B" stroke-width="5" stroke-miterlimit="10" width="640" height="960"/>
	<path fill="none" stroke="#1D1D1B" stroke-miterlimit="10" d="M393.916,707.523"/>
	<g>
		<polyline opacity="0.6" fill="#9568AD" points="395.262,844.369 320.097,888.048 319.845,977.47 397.914,932.979 395.262,844.369 
					"/>
		<polygon opacity="0.6" fill="#B4D300" points="395.262,844.369 473.083,889.3 472.828,978.722 397.914,932.979 		"/>
		<polygon opacity="0.6" fill="#F5A357" points="472.828,978.722 397.666,1022.668 319.845,977.47 397.914,932.979 		"/>
		<g opacity="0.6">
			<g>
				<polygon fill="#EC694A" points="397.788,933.11 397.54,1022.535 319.72,977.602 319.971,888.18 				"/>
			</g>
		</g>
		<g opacity="0.6">
			<g>
				<polygon fill="#FFE463" points="397.788,933.11 472.958,889.432 472.702,978.854 397.54,1022.535 				"/>
			</g>
		</g>
		<g opacity="0.6">
			<g>
				<polygon fill="#83BBC3" points="319.971,888.18 395.136,844.501 472.958,889.432 397.788,933.11 				"/>
			</g>
		</g>
	</g>
	<path fill="none" stroke="#1D1D1B" stroke-width="0.25" stroke-miterlimit="10" d="M377.101,977.602"/>
	<path fill="none" stroke="#1D1D1B" stroke-width="0.25" stroke-miterlimit="10" d="M377.101,977.602"/>
	<path fill="none" stroke="#1D1D1B" stroke-width="0.25" stroke-miterlimit="10" d="M320.07,889.432"/>
	<path fill="none" stroke="#1D1D1B" stroke-width="0.25" stroke-miterlimit="10" d="M320.07,889.432"/>
	<path fill="none" stroke="#575756" stroke-miterlimit="10" d="M392.222,1055.016c-68.002,0-123.131-55.123-123.131-123.132"/>
	<path fill="none" stroke="#575756" stroke-miterlimit="10" d="M269.091,931.884c0-68.003,55.129-123.131,123.131-123.131"/>
	<path fill="none" stroke="#575756" stroke-miterlimit="10" d="M392.222,808.753c68.002,0,123.128,55.128,123.128,123.131"/>
	<path fill="#575756" d="M525.988,931.884c0,5.876-4.766,10.642-10.637,10.642c-5.878,0-10.641-4.766-10.641-10.642
		c0-5.875,4.763-10.643,10.641-10.643C521.222,921.241,525.988,926.009,525.988,931.884z"/>
</g>
<g id="Calque_3">
</g>
<g id="Calque_2">
</g>
<g id="titre">
</g>
</svg>
